<svg xmlns="http://www.w3.org/2000/svg" viewBox="2143 2168 3793 1477"><path class="fill-FFFFFF" d="M2990.5 3552.4h2886.1v-891.2H3395.8z"/><path fill="none" d="M4059.7 3615l-1125.6-3.4V2566h1125.6z"/><path class="fill-F2F4F6" d="M3521.8 3365.4h147.7v187.3h-147.7zm2354.8-704.2v891.2H3752.8v-187h2015v-517.6h-2015v-186.6zm-2354.8-3.3h147.7v190h-147.7z"/><path class="fill-F2F4F6" d="M4489 2955.7h163.1v346.8h-586.8v-391.4H4489zm253.7-44.6h881.1v391.4h-881.1zm-2534.4-690.6l782.2 1349.9 405.3-921.2-434.5-9.3-246.5-419.4z"/><path fill="transparent" d="M3395.8 3366.9h126v186.5h-523.3l396.7-893.9h126.7l-.1 187.3h-126z"/><path fill="transparent" class="stroke-000000" d="M3399.3 3086.4h-3.5v-239.6h126l.1-187.3h-126.7l-396.7 893.9h523.3v-186.5h-126v-263.7h3.5"/><circle fill="none" cx="3149.3" cy="3407.4" r="1"/><text transform="translate(3067.882 3521.888)" font-family="'Roboto-Regular'" font-size="30">V Express</text><text transform="translate(3067.882 3521.888)" font-family="'Roboto-Regular'" font-size="30">V Express</text><text transform="translate(3067.882 3521.769)" font-family="'Roboto-Regular'" font-size="30">Воздушный экспресс</text><path fill="transparent" d="M4489.7 2911.7h161.1v43.9h-161.1z"/><path fill="transparent" class="stroke-000000" d="M4581.3 2907.8v3.9h69.5v44h-161.1v-44h75.6v-3.9"/><circle fill="none" cx="4572.4" cy="2922.4" r="1"/><text transform="translate(4498.459 2945.676)" font-family="'Roboto-Regular'" font-size="18">LOT</text><text transform="translate(4498.459 2945.676)" font-family="'Roboto-Regular'" font-size="18">LOT</text><text transform="translate(4498.459 2945.676)" font-family="'Roboto-Regular'" font-size="18">LOT</text><path class="fill-FFFFFF" fill="none" d="M3808.9 3184.4l-55.6-1.3 2.2 30.8h-72v-78.8h125.4z"/><circle fill="none" cx="3746.9" cy="3122.7" r="1"/><path d="M3688.2 3187.9h39.2v16h-39.2z"/><path d="M3697.6 3193v6.3h-.8v-.4h-4v.4h-.7v-6.3h2c.1-.3.2-.8.3-1.1l.9.1c-.1.3-.3.7-.4 1h2.7zm-4.8.7v1h4v-1h-4zm0 1.7v1h4v-1h-4zm4.1 2.8v-1h-4v1h4zm5.7-.1c0-.1-.1-.3-.1-.5-2.1.5-2.4.6-2.6.7 0-.1-.2-.5-.2-.7.1 0 .2-.3.4-.5.1-.2.4-1.1.6-2h-1.1v-.7h3.5v.7h-1.7c-.2.8-.5 1.6-.8 2.3l1.7-.4c-.1-.4-.3-.8-.4-1.1l.6-.2c.3.7.6 1.6.8 2.2l-.7.2zm.3-4.8h-3.1v-.7h3.1v.7zm3.8.4v.4c-.1 3.2-.2 4.4-.5 4.7-.2.2-.3.3-.6.4h-1.1c0-.2-.1-.5-.2-.7h1c.1 0 .2 0 .3-.1.2-.2.3-1.2.4-3.9h-1c-.1 2-.4 3.7-1.6 4.8-.1-.2-.4-.4-.6-.6 1-1 1.3-2.5 1.4-4.3h-1v-.7h1v-1.6h.7v1.6h1.8zm3.8 2.4l-.9.3v2.1c0 .4-.1.6-.3.7-.2.1-.6.1-1.1.1 0-.2-.1-.5-.2-.7h.7c.1 0 .2 0 .2-.2v-1.9l-.9.3-.1-.7c.3-.1.7-.2 1.1-.3v-1.6h-1v-.7h1v-1.6h.7v1.6h.9v.7h-.9v1.4l.8-.2v.7zm2.8.1c.4 1.1 1 2 1.9 2.4-.2.1-.4.4-.5.6-.9-.5-1.5-1.4-1.9-2.5-.3.9-1 1.8-2.1 2.5-.1-.2-.4-.5-.5-.6 1.2-.7 1.7-1.6 2-2.5h-1.5v-.7h1.6c.1-.4.1-.9.1-1.3v-.1h-1.4v-.7h1.4v-1.4h.8v1.4h1.6v.7h-1.6v.1c0 .4 0 .8-.1 1.3h1.9v.7h-1.7v.1zm5.1.2l-.5-1v3.9h-.7v-3.5c-.2.8-.6 1.5-.9 2-.1-.2-.2-.5-.4-.7.5-.6 1-1.8 1.2-2.9h-1v-.7h1.1v-1.5h.7v1.5h.8v.7h-.8v.3c.2.3.8 1.2.9 1.4l-.4.5zm4.9-.3v.3c-.1 1.3-.1 1.8-.3 2-.1.1-.2.2-.4.2h-.7c0-.2-.1-.5-.2-.7h.5c.1 0 .2 0 .2-.1.1-.1.1-.4.2-1.2h-1.2v2.6h-.7v-1.9c-.5.7-1.1 1.2-1.8 1.6-.1-.2-.3-.4-.5-.6.7-.3 1.5-1 2-1.7h-1.4c.1-.5.2-1.4.2-2h1.5v-.9h-1.8v-.6h1c-.1-.3-.3-.7-.5-1l.6-.2c.2.4.5.8.6 1.1l-.3.1h1.2c.2-.4.4-.9.6-1.3l.7.2c-.2.4-.4.8-.6 1.1h.9v2.1h-1.7v.8h1.9v.1zm-3.5-.8c0 .3-.1.5-.1.8h1v-.8h-.9zm1.6-.6h1v-.9h-1v.9z" class="fill-FFFFFF"/><path d="M3691.8 3211.9h.8v.6h-.8v1.3h-.8v-1.3h-2.6v-.4l2.5-3.9h.8v3.7h.1zm-2.5 0h1.7v-2.7l-.1.2-1.6 2.5zm8-1.2l-.4.4c-.1-.1-.1-.2-.3-.4v3.5h-.6v-3c-.2.5-.4.9-.6 1.2l-.3-.6c.4-.5.7-1.1.9-1.9h-.8v-.6h.8v-1.3h.6v1.3h.6v.6h-.6c.3.2.6.5.7.8zm4 1.5h-1c-.2.4-.3.6-.5.9.5.2.9.4 1.4.7l-.4.5c-.4-.3-.9-.5-1.5-.7-.6.4-1.3.6-2.1.7l-.2-.5c.6 0 1.1-.2 1.6-.4-.2-.1-.6-.2-1.1-.4.2-.2.3-.4.5-.7h-.8v-.5h1.1c.1-.1.2-.3.3-.6l.6.2c-.1.2-.1.3-.2.4h.9c.1-.1.1-.3.1-.4l.6.2c0 .1 0 .2-.1.2h.8v.4zm-2.6-2c-.4.5-.7.9-1 1.1l-.4-.4c.3-.3.7-.7.9-1.1l.5.4zm2.4-.5h-1.6v1.3h-.6v-1.3h-1.6v-.6h1.6v-1.1h.6v1.1h1.6v.6zm-2.4-.9l-.5.3c-.2-.3-.4-.5-.6-.7l.5-.3c.3.2.5.5.6.7zm.9 3.4h-.9c-.1.2-.2.3-.2.4.3.1.5.2.7.2.2-.2.4-.4.4-.6zm1.7-1.2l-.4.4-1.1-1.1.4-.4c.4.3.7.7 1.1 1.1zm-.4-2.6c-.1.2-.3.4-.6.7l-.5-.3.6-.6.5.2zm7 1.4h-4.6v1.3c0 1.3-.2 2.3-.6 3.1l-.5-.4c.3-.7.5-1.6.5-2.7v-3h5.2v1.7zm-.6-.5v-.6h-4v.6h4zm1 2.8h-3.1l.3.2c-.3.5-.6.9-1 1.3.9 0 1.7-.1 2.5-.3-.1-.2-.4-.4-.7-.6l.5-.3c.6.6 1.1 1.1 1.4 1.6l-.5.3c-.1-.1-.2-.3-.3-.4-1.6.3-2.8.4-3.7.4l-.1-.5c.5-.3.9-.8 1.3-1.5h-1.4v-.5h4.8v.3zm-.3-1.2h-4.2v-.5h4.2v.5zm-19.8-23h61.7v16h-61.7z"/><path d="M3695.8 3196.5h-2.1v1.8h2.5v1.1h-3.9v-6.8h3.9v1.1h-2.5v1.6h2.1v1.2zm5 1.1c0-.3-.1-.5-.2-.6s-.4-.3-.8-.4c-.7-.3-1.2-.6-1.5-.9s-.4-.8-.4-1.2c0-.6.2-1 .6-1.4.4-.3.9-.5 1.5-.5.4 0 .8.1 1.1.3s.6.4.7.7.3.7.3 1.1h-1.4c0-.3-.1-.6-.2-.7-.1-.2-.3-.2-.6-.2-.2 0-.4.1-.6.2s-.2.3-.2.6c0 .2.1.4.2.5.1.2.4.3.8.5.7.2 1.1.5 1.4.9.3.3.4.8.4 1.3 0 .6-.2 1-.6 1.4s-.9.5-1.5.5c-.4 0-.8-.1-1.2-.3s-.6-.4-.8-.8c-.2-.3-.3-.7-.3-1.2h1.4c0 .4.1.7.2.8.2.2.4.3.7.3.8-.1 1-.4 1-.9zm7.8-.5c0 .8-.2 1.4-.6 1.7s-1 .6-1.7.6c-.8 0-1.3-.3-1.8-.8-.4-.5-.6-1.2-.6-2.1v-1.1c0-.9.2-1.6.6-2.1.4-.5 1-.8 1.8-.8.7 0 1.3.2 1.7.6s.6 1 .7 1.8h-1.4c0-.5-.1-.8-.2-1-.1-.2-.4-.3-.7-.3-.4 0-.6.1-.8.4s-.2.7-.2 1.3v1.3c0 .7.1 1.1.2 1.4.2.3.4.4.8.4s.6-.1.7-.3.2-.5.2-.9h1.3v-.1zm5 .9h-1.9l-.4 1.4h-1.4l2.1-6.8h1.2l2.1 6.8h-1.5l-.2-1.4zm-1.5-1.1h1.3l-.6-2.4-.7 2.4zm6.3 1.4h2.4v1.1h-3.8v-6.8h1.4v5.7zm7.4-.3h-1.9l-.4 1.4h-1.4l2.1-6.8h1.2l2.1 6.8h-1.5l-.2-1.4zm-1.5-1.1h1.3l-.6-2.4-.7 2.4zm8.8-3.1h-1.7v5.6h-1.4v-5.6h-1.6v-1.1h4.7v1.1zm6.3 2.8c0 .9-.2 1.6-.6 2.1-.4.5-1 .8-1.8.8s-1.4-.2-1.8-.7c-.4-.5-.7-1.2-.7-2.1v-1.2c0-.9.2-1.7.6-2.2.4-.5 1-.8 1.8-.8s1.3.3 1.8.8.7 1.2.7 2.2v1.1zm-1.4-1.1c0-.6-.1-1.1-.3-1.4-.2-.3-.4-.4-.8-.4s-.6.1-.8.4-.3.7-.3 1.3v1.2c0 .6.1 1 .3 1.3s.4.4.8.4.6-.1.8-.4c.2-.3.3-.7.3-1.3v-1.1zm5.4 1.4h-.7v2.5h-1.4v-6.8h2.2c.7 0 1.2.2 1.6.5.4.4.6.9.6 1.5 0 .9-.3 1.5-1 1.9l1.2 2.8v.1h-1.5l-1-2.5zm-.7-1.1h.8c.3 0 .5-.1.6-.3s.2-.4.2-.7c0-.7-.3-1-.8-1h-.8v2z" class="fill-FFFFFF"/><path d="M3691.8 3211.9h.8v.6h-.8v1.3h-.8v-1.3h-2.6v-.4l2.5-3.9h.8v3.7h.1zm-2.5 0h1.7v-2.7l-.1.2-1.6 2.5zm6.3 1.9v-3.7h-.7v-.6h.7v-.5c0-.5.1-.8.4-1 .2-.2.6-.4 1-.4h.3c.1 0 .2 0 .3.1l-.1.6h-.4c-.2 0-.4.1-.5.2-.1.1-.2.3-.2.6v.5h.9v.6h-.9v3.7h-.8v-.1zm3.3 0h-.8v-6.1h.8v6.1zm1-2.1c0-.6.2-1.1.5-1.5s.8-.6 1.4-.6c.6 0 1 .2 1.4.6.3.4.5.9.5 1.5v.1c0 .6-.2 1.1-.5 1.5s-.8.6-1.4.6c-.6 0-1-.2-1.4-.6s-.5-.9-.5-1.6zm.7 0c0 .4.1.8.3 1.1s.5.4.8.4c.4 0 .6-.1.8-.4.2-.3.3-.7.3-1.1v-.1c0-.4-.1-.8-.3-1.1s-.5-.4-.8-.4c-.4 0-.6.1-.8.4-.2.3-.3.7-.3 1.2zm3.8 0c0-.6.2-1.1.5-1.5s.8-.6 1.4-.6c.6 0 1 .2 1.4.6.3.4.5.9.5 1.5v.1c0 .6-.2 1.1-.5 1.5s-.8.6-1.4.6c-.6 0-1-.2-1.4-.6s-.5-.9-.5-1.6zm.8 0c0 .4.1.8.3 1.1s.5.4.8.4c.4 0 .6-.1.8-.4.2-.3.3-.7.3-1.1v-.1c0-.4-.1-.8-.3-1.1s-.5-.4-.8-.4c-.4 0-.6.1-.8.4-.2.3-.3.7-.3 1.2zm5.9-1.4h-.4c-.2 0-.4 0-.5.1s-.2.2-.3.4v3h-.8v-4.2h.7l.1.6c.1-.2.3-.4.4-.5.2-.1.4-.2.6-.2h.3l-.1.8zm-22.9-22.4h64.9v16h-64.9z"/><path d="M3694.2 3197.1c0 .4.1.7.3.9.1.2.4.3.7.3.4 0 .6-.1.8-.4.2-.3.2-.7.3-1.3h-1.6v-1.1h1.6c0-.6-.1-1-.3-1.3s-.4-.4-.8-.4c-.3 0-.6.1-.7.3-.2.2-.2.5-.3 1h-1.4c.1-.8.3-1.3.7-1.8s.9-.6 1.6-.6c.7 0 1.3.3 1.8.9.4.6.7 1.4.7 2.4v.4c0 1-.2 1.8-.6 2.4-.4.6-1 .9-1.8.9-.7 0-1.2-.2-1.7-.6-.4-.4-.6-1-.7-1.7h1.4v-.3zm9.8 0c0 .8-.2 1.4-.6 1.7s-1 .6-1.7.6c-.8 0-1.3-.3-1.8-.8-.4-.5-.6-1.2-.6-2.1v-1.1c0-.9.2-1.6.6-2.1.4-.5 1-.8 1.8-.8.7 0 1.3.2 1.7.6s.6 1 .7 1.8h-1.4c0-.5-.1-.8-.2-1-.1-.2-.4-.3-.7-.3-.4 0-.6.1-.8.4s-.2.7-.2 1.3v1.3c0 .7.1 1.1.2 1.4.2.3.4.4.8.4s.6-.1.7-.3.2-.5.2-.9h1.3v-.1zm3.7-.5h-.6v2.8h-1.4v-6.8h1.4v2.7h.5l1.2-2.7h1.7l-1.7 3.1 1.8 3.6h-1.6l-1.3-2.7zm7.6 1.4h-1.9l-.4 1.4h-1.4l2.1-6.8h1.2l2.1 6.8h-1.5l-.2-1.4zm-1.6-1.1h1.3l-.6-2.4-.7 2.4zm9.8-4.3v6.8h-1.4v-5.6h-1.3l-.1 2.4c0 .8-.1 1.4-.3 1.9-.1.5-.3.8-.6 1s-.6.3-1.1.3h-.3v-1.1h.2c.3 0 .5-.2.6-.6.1-.3.2-.9.2-1.8l.1-3.3h4zm5.4 5.4h-1.9l-.4 1.4h-1.4l2.1-6.8h1.2l2.1 6.8h-1.5l-.2-1.4zm-1.6-1.1h1.3l-.6-2.4-.7 2.4zm8.8-3.1h-1.7v5.6h-1.4v-5.6h-1.6v-1.1h4.7v1.1zm6.4 2.8c0 .9-.2 1.6-.6 2.1-.4.5-1 .8-1.8.8s-1.4-.2-1.8-.7c-.4-.5-.7-1.2-.7-2.1v-1.2c0-.9.2-1.7.6-2.2.4-.5 1-.8 1.8-.8s1.3.3 1.8.8.7 1.2.7 2.2v1.1zm-1.4-1.1c0-.6-.1-1.1-.3-1.4-.2-.3-.4-.4-.8-.4s-.6.1-.8.4-.3.7-.3 1.3v1.2c0 .6.1 1 .3 1.3s.4.4.8.4.6-.1.8-.4c.2-.3.3-.7.3-1.3v-1.1zm4.6 1.5v2.4h-1.4v-6.8h2.3c.7 0 1.2.2 1.6.6.4.4.6 1 .6 1.6 0 .7-.2 1.2-.6 1.6s-.9.6-1.6.6h-.9zm0-1.1h.9c.3 0 .5-.1.6-.3s.2-.4.2-.7-.1-.6-.2-.8c-.1-.2-.3-.3-.6-.3h-1v2.1h.1z" class="fill-FFFFFF"/><path d="M3691.7 3212h.8v.6h-.8v1.3h-.8v-1.3h-2.6v-.4l2.5-3.9h.8v3.7h.1zm-2.5 0h1.7v-2.7l-.1.2-1.6 2.5zm7.5-1.8c-.2 0-.5.1-.6.2s-.3.4-.3.6h-.7c0-.4.1-.7.5-1s.7-.4 1.1-.4c.6 0 1 .2 1.4.6s.5.9.5 1.5v.2c0 .6-.2 1.1-.5 1.5s-.8.6-1.4.6c-.5 0-.9-.1-1.2-.4s-.5-.7-.4-1.1h.7c0 .3.1.5.3.7s.4.3.7.3.6-.1.8-.4.3-.6.3-.9h-1.5v-.6h1.5c0-.3-.1-.6-.3-.9s-.6-.5-.9-.5zm6 .1h-1.4v3.6h-.8v-3.6h-1.4v-.6h3.5v.6h.1zm3.4 3.6c0-.1 0-.2-.1-.3s0-.2 0-.3c-.1.2-.3.4-.6.5s-.5.2-.7.2c-.4 0-.8-.1-1-.3s-.3-.5-.3-.9.2-.7.5-.9.8-.3 1.3-.3h.8v-.4c0-.2-.1-.4-.2-.6s-.4-.2-.6-.2c-.2 0-.4.1-.6.2s-.2.3-.2.5h-.7c0-.3.1-.6.4-.8s.7-.4 1.2-.4.9.1 1.2.4.4.6.4 1.1v2.4c0 .1 0 .3.1.4h-.9v-.3zm-1.3-.5c.3 0 .5-.1.8-.2.2-.1.4-.3.4-.5v-.7h-.9c-.3 0-.6.1-.7.2-.2.2-.3.3-.3.5s.1.3.2.4c.1.2.2.3.5.3zm6.4-1.3h-.5v1.8h-.8v-1.8h-.5l-1.1 1.8h-1l1.5-2.2-1.4-2h.9l1 1.7h.5v-1.7h.8v1.7h.5l1-1.7h.9l-1.4 2 1.5 2.2h-1l-.9-1.8zm82.8-70.2h1v12h-1zm-45 0h1v12h-1zm-5 0h1v12h-1zm-5 0h1v12h-1zm-5 0h1v12h-1zm-5 0h1v12h-1zm40 0h1v12h-1zm-5 0h1v12h-1zm-5 0h1v12h-1zm-5 0h1v12h-1zm35 0h1v12h-1zm-5 0h1v12h-1zm-5 0h1v12h-1zm-5 0h1v12h-1zm-50 0h1v12h-1zm-5 0h1v12h-1zm-5 0h1v12h-1zm-5 0h1v12h-1zm-5 0h1v12h-1zm-5 0h1v12h-1z"/><path class="fill-C0C7CC" d="M3796 3142.9h10v10h-10zm-108 21h10v10h-10z"/><path d="M3688 3142.9h10v10h-10z"/><path class="fill-FFFFFF" d="M3690.5 3147.4h-2.5v1h2.5l-.5.5v1l2-2-2-2v1z"/><path d="M3794 3162.9h1v12h-1zm-45 0h1v12h-1zm-5 0h1v12h-1zm-5 0h1v12h-1zm-5 0h1v12h-1zm-5 0h1v12h-1zm-5 0h1v12h-1zm-5 0h1v12h-1zm-5 0h1v12h-1zm-5 0h1v12h-1zm80 0h1v12h-1zm-5 0h1v12h-1zm-5 0h1v12h-1zm-5 0h1v12h-1zm-5 0h1v12h-1zm-5 0h1v12h-1zm-5 0h1v12h-1zm-5 0h1v12h-1zm-50 0h1v12h-1zm-5 0h1v12h-1zm97 1h10v10h-10z"/><path class="fill-FFFFFF" d="M3803.4 3169.4h2.6v-1h-2.6l.5-.5v-1l-1.9 2 1.9 2v-1zm-114.4-8.8v-4.4c0-.7.6-1.3 1.3-1.3h113.4c.7 0 1.3.6 1.3 1.3v4.4c0 .7-.6 1.3-1.3 1.3h-113.4c-.8 0-1.3-.6-1.3-1.3z"/><path d="M3688 3160.6v-4.4c0-1.3 1-2.3 2.3-2.3h113.4c1.3 0 2.3 1 2.3 2.3v4.4c0 1.3-1 2.3-2.3 2.3h-113.4c-1.3 0-2.3-1.1-2.3-2.3zm116-4.4c0-.2-.1-.3-.3-.3h-113.4c-.2 0-.3.1-.3.3v4.4c0 .2.1.3.3.3h113.4c.2 0 .3-.1.3-.3v-4.4z"/><path d="M3688.9 3139.6v-2.4c0-.7.6-1.3 1.3-1.3h113.4c.7 0 1.3.6 1.3 1.3v2.4c0 .7-.6 1.3-1.3 1.3h-113.4c-.7 0-1.3-.6-1.3-1.3z" class="fill-FFFFFF"/><path d="M3688 3139.6v-2.4c0-1.3 1-2.3 2.3-2.3h113.9c1.3 0 1.8 1 1.8 2.3v2.4c0 1.3-1 2.3-2.3 2.3h-113.4c-1.3 0-2.3-1-2.3-2.3zm116-2.4c0-.2-.1-.3-.3-.3h-113.4c-.2 0-.3.1-.3.3v2.4c0 .2.1.3.3.3h113.4c.2 0 .3-.1.3-.3v-2.4zm-120 22c0-.2.1-.3.2-.3h125.5c.1 0 .2.1.2.3s-.1.3-.2.3h-125.5c-.1 0-.2-.1-.2-.3zm0-1.6c0-.2.1-.3.2-.3h125.5c.1 0 .2.1.2.3s-.1.3-.2.3h-125.5c-.1 0-.2-.2-.2-.3z"/><path d="M3684 3138.4c0-.2.1-.3.2-.3h125.5c.1 0 .2.1.2.3s-.1.3-.2.3h-125.5c-.1 0-.2-.2-.2-.3z"/><path d="M3688.9 3179.6v-2.4c0-.7.6-1.3 1.3-1.3h113.4c.7 0 1.3.6 1.3 1.3v2.4c0 .7-.6 1.3-1.3 1.3h-113.4c-.7 0-1.3-.6-1.3-1.3z" class="fill-FFFFFF"/><path d="M3688 3179.6v-2.4c0-1.3 1-2.3 2.3-2.3h113.4c1.3 0 2.3 1 2.3 2.3v2.4c0 1.3-1 2.3-2.3 2.3h-113.4c-1.3 0-2.3-1-2.3-2.3zm116-2.4c0-.2-.1-.3-.3-.3h-113.4c-.2 0-.3.1-.3.3v2.4c0 .2.1.3.3.3h113.4c.2 0 .3-.1.3-.3v-2.4z"/><path d="M3684 3178.4c0-.2.1-.3.2-.3h125.5c.1 0 .2.1.2.3s-.1.3-.2.3h-125.5c-.1 0-.2-.2-.2-.3z"/><path class="fill-FFFFFF" fill="none" d="M3688.5 3135.1h-42.4v-39.4H3587v-42.3h101.5z"/><circle fill="none" cx="3668.5" cy="3044.3" r="1"/><path d="M3612.9 3067.5h23v16h-23z"/><path d="M3622.2 3078c.4 0 .5-.2.6-1.2.2.1.5.3.7.3-.1 1.2-.3 1.7-1.2 1.7h-1.6c-1 0-1.3-.3-1.3-1.3v-.7h-1.8v.5h-.8v-4.6h2.6v-1.1h.8v1.1h2.6v4.1h-2.6v.7c0 .5.1.6.5.6h1.5v-.1zm-4.6-4.6v1h1.8v-1h-1.8zm1.8 2.6v-1h-1.8v1h1.8zm.8-2.6v1h1.8v-1h-1.8zm1.8 2.6v-1h-1.8v1h1.8zm4.2-1.7c.2.3.8 1.1 1 1.4l-.3.4c-.1-.2-.4-.7-.7-1.1v4h-.5v-4c-.3.9-.7 1.9-1.1 2.4-.1-.1-.2-.4-.3-.5.5-.7 1.1-2 1.3-3.1h-1.2v-.5h1.2v-1.8h.7s-.1.1-.2.1v1.6h1v.5h-1v.6h.1zm5.3 1.5h.3v.2c-.1 1.4-.2 1.9-.3 2.1-.2.2-.4.2-.8.2h-.5c0-.1-.1-.4-.1-.5h.7c.1 0 .2 0 .2-.1.1-.1.2-.5.2-1.4h-1.5v2.7h-.5v-2.1c-.5.8-1.3 1.5-2 1.9-.1-.1-.2-.3-.4-.4.8-.4 1.7-1.2 2.2-2h-1.2c0 .1 0 .2-.1.3l-.5-.1c.2-.6.3-1.5.4-2.1h1.6v-1h-1.8v-.5h1c-.1-.3-.3-.8-.5-1.2l.4-.2c.2.4.4.8.5 1.1l-.4.2h1.9l-.3-.1c.2-.3.4-.8.5-1.2l.6.2s-.1.1-.2.1c-.1.3-.4.7-.6 1h1v2h-1.8v.9h2zm-2.3-1h-1.1l-.2.9h1.3v-.9zm.5-1.5v1h1.3v-1h-1.3z" class="fill-FFFFFF"/><path d="M3616.4 3091.5h.8v.6h-.8v1.3h-.8v-1.3h-2.6v-.4l2.5-3.9h.8v3.7h.1zm-2.5 0h1.7v-2.7l-.1.2-1.6 2.5zm8.1-1.3l-.4.4c-.1-.1-.1-.2-.3-.4v3.5h-.6v-3c-.2.5-.4.9-.6 1.2l-.3-.6c.4-.5.7-1.1.9-1.9h-.8v-.6h.8v-1.3h.6v1.3h.6v.6h-.6c.3.3.5.6.7.8zm3.9 1.5h-1c-.2.4-.3.6-.5.9.5.2.9.4 1.4.7l-.4.5c-.4-.3-.9-.5-1.5-.7-.6.4-1.3.6-2.1.7l-.2-.5c.6 0 1.1-.2 1.6-.4-.2-.1-.6-.2-1.1-.4.2-.2.3-.4.5-.7h-.8v-.5h1.1c.1-.1.2-.3.3-.6l.6.2c-.1.2-.1.3-.2.4h.9c.1-.1.1-.3.1-.4l.6.2c0 .1 0 .2-.1.2h.8v.4zm-2.5-1.9c-.4.5-.7.9-1 1.1l-.4-.4c.3-.3.7-.7.9-1.1l.5.4zm2.4-.5h-1.6v1.3h-.6v-1.3h-1.6v-.6h1.6v-1.1h.6v1.1h1.6v.6zm-2.4-.9l-.5.3c-.2-.3-.4-.5-.6-.7l.5-.3c.2.2.4.4.6.7zm.9 3.3h-.9c-.1.2-.2.3-.2.4.3.1.5.2.7.2.2-.1.3-.4.4-.6zm1.6-1.2l-.4.4-1.1-1.1.4-.4 1.1 1.1zm-.3-2.5c-.1.2-.3.4-.6.7l-.5-.3.6-.6.5.2zm7 1.4h-4.6v1.3c0 1.3-.2 2.3-.6 3.1l-.5-.4c.3-.7.5-1.6.5-2.7v-3h5.2v1.7zm-.6-.6v-.6h-4v.6h4zm1 2.9h-3.1l.3.2c-.3.5-.6.9-1 1.3.9 0 1.7-.1 2.5-.3-.1-.2-.4-.4-.7-.6l.5-.3c.6.6 1.1 1.1 1.4 1.6l-.5.3c-.1-.1-.2-.3-.3-.4-1.6.3-2.8.4-3.7.4l-.1-.5c.5-.3.9-.8 1.3-1.5h-1.4v-.5h4.8v.3zm-.4-1.2h-4.2v-.5h4.2v.5zm-45.6-23h54.4v16H3587z"/><path d="M3594.7 3076h-2.1v1.8h2.5v1.1h-3.9v-6.8h3.9v1.1h-2.5v1.6h2.1v1.2zm3.5 1.8h2.4v1.1h-3.8v-6.8h1.4v5.7zm7.6-1.8h-2.1v1.8h2.5v1.1h-3.9v-6.8h3.9v1.1h-2.5v1.6h2.1v1.2zm4.3 1.1l1.1-4.9h1.5l-1.9 6.8h-1.4l-1.9-6.8h1.5l1.1 4.9zm7.1.5h-1.9l-.4 1.4h-1.4l2.1-6.8h1.2l2.1 6.8h-1.5l-.2-1.4zm-1.5-1.2h1.3l-.6-2.4-.7 2.4zm8.7-3.1h-1.7v5.6h-1.4v-5.6h-1.6v-1.1h4.7v1.1zm6.4 2.9c0 .9-.2 1.6-.6 2.1-.4.5-1 .8-1.8.8s-1.4-.2-1.8-.7c-.4-.5-.7-1.2-.7-2.1v-1.2c0-.9.2-1.7.6-2.2.4-.5 1-.8 1.8-.8s1.3.3 1.8.8.7 1.2.7 2.2v1.1zm-1.4-1.1c0-.6-.1-1.1-.3-1.4-.2-.3-.4-.4-.8-.4s-.6.1-.8.4-.3.7-.3 1.3v1.2c0 .6.1 1 .3 1.3s.4.4.8.4.6-.1.8-.4c.2-.3.3-.7.3-1.3v-1.1zm5.4 1.4h-.7v2.5h-1.4v-6.8h2.2c.7 0 1.2.2 1.6.5.4.4.6.9.6 1.5 0 .9-.3 1.5-1 1.9l1.2 2.8v.1h-1.5l-1-2.5zm-.7-1.1h.8c.3 0 .5-.1.6-.3s.2-.4.2-.7c0-.7-.3-1-.8-1h-.8v2z" class="fill-FFFFFF"/><path d="M3590.6 3091.5h.8v.6h-.8v1.3h-.8v-1.3h-2.6v-.4l2.5-3.9h.8v3.7h.1zm-2.5 0h1.7v-2.7l-.1.2-1.6 2.5zm6.3 1.9v-3.7h-.7v-.6h.7v-.5c0-.5.1-.8.4-1 .2-.2.6-.4 1-.4h.3c.1 0 .2 0 .3.1l-.1.6h-.4c-.2 0-.4.1-.5.2-.1.1-.2.3-.2.6v.5h.9v.6h-.9v3.7h-.8v-.1zm3.3 0h-.8v-6.1h.8v6.1zm1-2.2c0-.6.2-1.1.5-1.5s.8-.6 1.4-.6c.6 0 1 .2 1.4.6.3.4.5.9.5 1.5v.1c0 .6-.2 1.1-.5 1.5s-.8.6-1.4.6c-.6 0-1-.2-1.4-.6s-.5-.9-.5-1.6zm.8.1c0 .4.1.8.3 1.1s.5.4.8.4c.4 0 .6-.1.8-.4.2-.3.3-.7.3-1.1v-.1c0-.4-.1-.8-.3-1.1s-.5-.4-.8-.4c-.4 0-.6.1-.8.4-.2.3-.3.7-.3 1.2zm3.7-.1c0-.6.2-1.1.5-1.5s.8-.6 1.4-.6c.6 0 1 .2 1.4.6.3.4.5.9.5 1.5v.1c0 .6-.2 1.1-.5 1.5s-.8.6-1.4.6c-.6 0-1-.2-1.4-.6s-.5-.9-.5-1.6zm.8.1c0 .4.1.8.3 1.1s.5.4.8.4c.4 0 .6-.1.8-.4.2-.3.3-.7.3-1.1v-.1c0-.4-.1-.8-.3-1.1s-.5-.4-.8-.4c-.4 0-.6.1-.8.4-.2.3-.3.7-.3 1.2zm6-1.5h-.4c-.2 0-.4 0-.5.1s-.2.2-.3.4v3h-.8v-4.2h.7l.1.6c.1-.2.3-.4.4-.5.2-.1.4-.2.6-.2h.3l-.1.8zm-2.3-22.3h33.8v16h-33.8z"/><path d="M3616.5 3072.2v6.8h-1.4v-5.6h-1.3l-.1 2.4c0 .8-.1 1.4-.3 1.9-.1.5-.3.8-.6 1s-.6.3-1.1.3h-.3v-1.1h.2c.3 0 .5-.2.6-.6.1-.3.2-.9.2-1.8l.1-3.3h4zm5.4 0h1.4v6.8h-1.4v-4.5l-2 4.5h-1.4v-6.8h1.4v4.5l2-4.5zm7 .6c.7 0 1.3.3 1.7.8s.7 1.2.7 2-.2 1.5-.7 2c-.4.5-1 .8-1.7.8v.9h-1.3v-.9c-.5 0-.9-.1-1.3-.3s-.6-.6-.8-1-.3-.9-.3-1.4c0-.8.2-1.5.7-2 .4-.5 1-.8 1.8-.8v-.9h1.3v.8h-.1zm-1.4 1.2c-.3 0-.6.1-.8.4-.2.3-.3.7-.3 1.2s.1.9.3 1.2.5.4.8.4h.1l-.1-3.2zm1.4 0v3.2h.1c.3 0 .6-.1.8-.4.2-.3.3-.7.3-1.2s-.1-.9-.3-1.2c-.3-.3-.5-.4-.9-.4zm8.6-.7h-1.7v5.6h-1.4v-5.6h-1.6v-1.1h4.7v1.1z" class="fill-FFFFFF"/><path d="M3611.2 3091.5h.8v.6h-.8v1.3h-.8v-1.3h-2.6v-.4l2.5-3.9h.8v3.7h.1zm-2.5 0h1.7v-2.7l-.1.2-1.6 2.5zm7.5-1.8c-.2 0-.5.1-.6.2-.2.2-.3.4-.3.6h-.7c0-.4.1-.7.5-1s.7-.4 1.1-.4c.6 0 1 .2 1.4.6.3.4.5.9.5 1.5v.2c0 .6-.2 1.1-.5 1.5s-.8.6-1.4.6c-.5 0-.9-.1-1.2-.4-.3-.3-.5-.6-.4-1.1h.7c0 .3.1.5.3.7s.4.3.7.3.6-.1.8-.4c.2-.3.3-.6.3-.9h-1.5v-.6h1.5c0-.3-.1-.6-.3-.9-.3-.4-.6-.5-.9-.5zm6 .1h-1.4v3.6h-.8v-3.6h-1.4v-.6h3.5v.6h.1zm3.4 3.6c0-.1 0-.2-.1-.3v-.3c-.1.2-.3.4-.6.5s-.5.2-.7.2c-.4 0-.8-.1-1-.3s-.3-.5-.3-.9.2-.7.5-.9.8-.3 1.3-.3h.8v-.4c0-.2-.1-.4-.2-.6-.2-.1-.4-.2-.6-.2-.2 0-.4.1-.6.2-.2.1-.2.3-.2.5h-.7c0-.3.1-.6.4-.8.3-.3.7-.4 1.2-.4s.9.1 1.2.4c.3.2.4.6.4 1.1v2.4c0 .1 0 .3.1.4h-.9v-.3zm-1.3-.6c.3 0 .5-.1.8-.2.2-.1.4-.3.4-.5v-.7h-.9c-.3 0-.6.1-.7.2-.2.2-.3.3-.3.5s.1.3.2.4c.1.3.3.3.5.3zm6.5-1.3h-.5v1.8h-.8v-1.8h-.5l-1.1 1.8h-1l1.5-2.2-1.4-2h.9l1 1.7h.5v-1.7h.8v1.7h.5l1-1.7h.9l-1.4 2 1.5 2.2h-1l-.9-1.8zm19.7 2.2h38v40h-38v-11h2v9h34v-36h-34v11h-2z"/><path d="M3658.5 3115.7h10v10h-10z"/><path class="fill-FFFFFF" d="M3663 3123.2v2.5h1v-2.5l.5.5h1l-2-2-2 2h1z"/><path d="M3684.5 3128.7h-30v1h30zm-3-2h-24v.6h24zm.6-26.6h-25.2v.6h25.2zm0 .6h-.6v26.6h.6zm-24.6 0h-.6v26.6h.6zm27-3h-30v1h30z"/><path d="M3655.5 3097.7h-1v31h1zm29 0h-1v31h1zm-34-42h38v40h-38v-11h2v9h34v-36h-34v10h-2z"/><path d="M3670.5 3063.7h10v10h-10z"/><path class="fill-FFFFFF" d="M3676 3066.2v-2.5h-1v2.5l-.5-.5h-1l2 2 2-2h-1z"/><path d="M3682.1 3062.1h-25.2v27.2h25.2v-27.2zm-24.6 26.6v-26h24v26h-24z"/><path d="M3684.5 3059.7h-30v32h30v-32zm-29 31v-30h28v30h-28zm-8.029-7.544h5v2h-5zm-.018-15.982h5v2h-5zm.006 53.958h5v2h-5zm-.012-15.987h5v2h-5z"/><path class="fill-FFFFFF" fill="none" d="M3688.8 3015.4v41.3h113.3v-35.3h-96.6v-4.3l20.5-1.4 22.8-9.8v-16H3690l-1.2 23.3z"/><circle fill="none" cx="3718.1" cy="2978" r="1"/><path d="M3690 2989.9h23.3v16H3690z"/><path d="M3695.3 2996.8c.2.3.8 1.2 1 1.4l-.3.4c-.1-.3-.4-.8-.7-1.2v3.9h-.5v-3.9c-.3.9-.7 1.8-1 2.4-.1-.1-.2-.3-.3-.5.5-.7 1-2 1.3-3.1h-1.1v-.5h1.2v-1.8h.7s-.1.1-.2.1v1.6h1v.5h-1v.7h-.1zm2.8.9l.6.1c0 .1-.1.1-.2.1-.1.2-.2.3-.3.5h2.7v.5h-.7c-.2.6-.5 1.1-.9 1.4.6.2 1.1.5 1.5.7l-.4.4-1.6-.8c-.6.4-1.4.6-2.6.8 0-.2-.1-.4-.2-.5.9-.1 1.6-.3 2.2-.5-.3-.1-.7-.3-1-.4l-.1.2-.5-.2c.2-.3.4-.8.7-1.2h-1.1v-.5h1.4l.5-.6zm.3 0v-1.4c-.5.6-1.1 1.2-1.8 1.5-.1-.1-.2-.3-.3-.4.6-.3 1.3-.8 1.8-1.4h-1.6v-.5h1.9v-1.6h.7c0 .1 0 .1-.2.1v1.5h2v.5h-1.7c.5.5 1.2 1 1.8 1.3l-.4.4c-.6-.3-1.3-.8-1.8-1.4v1.4h-.4zm-1.2-3.5c.3.3.5.8.6 1.1l-.4.2c-.1-.3-.4-.8-.6-1.1l.4-.2zm.8 4.7c-.1.3-.3.5-.4.8.4.1.9.3 1.3.5.4-.3.7-.7.8-1.2h-1.7v-.1zm2.7-4.5c0 .1-.1.1-.2.1-.2.3-.5.8-.7 1.1l-.4-.2c.2-.3.5-.8.7-1.2l.6.2zm3.6 4l-.5-1v3.9h-.7v-3.5c-.2.8-.6 1.5-.9 2-.1-.2-.2-.5-.4-.7.5-.6 1-1.8 1.2-2.9h-1v-.7h1.1v-1.5h.7v1.5h.8v.7h-.8v.3c.2.3.8 1.2.9 1.4l-.4.5zm4.9-.3v.3c-.1 1.3-.1 1.8-.3 2-.1.1-.2.2-.4.2h-.7c0-.2-.1-.5-.2-.7h.5c.1 0 .2 0 .2-.1.1-.1.1-.4.2-1.2h-1.2v2.6h-.7v-1.9c-.5.7-1.1 1.2-1.8 1.6-.1-.2-.3-.4-.5-.6.7-.3 1.5-1 2-1.7h-1.4c.1-.5.2-1.4.2-2h1.5v-.9h-1.8v-.6h1c-.1-.3-.3-.7-.5-1l.6-.2c.2.4.5.8.6 1.1l-.3.1h1.2c.2-.4.4-.9.6-1.3l.7.2c-.2.4-.4.8-.6 1.1h.9v2.1h-1.7v.8h1.9v.1zm-3.6-.7c0 .3-.1.5-.1.8h1v-.8h-.9zm1.6-.6h1v-.9h-1v.9z" class="fill-FFFFFF"/><path d="M3693.5 3013.9h.8v.6h-.8v1.3h-.8v-1.3h-2.6v-.4l2.5-3.9h.8v3.7h.1zm-2.5 0h1.7v-2.7l-.1.2-1.6 2.5zm8.1-1.2l-.4.4c-.1-.1-.1-.2-.3-.4v3.5h-.6v-3c-.2.5-.4.9-.6 1.2l-.3-.6c.4-.5.7-1.1.9-1.9h-.8v-.6h.8v-1.3h.6v1.3h.6v.6h-.6c.3.3.5.5.7.8zm3.9 1.5h-1c-.2.4-.3.6-.5.9.5.2.9.4 1.4.7l-.4.5c-.4-.3-.9-.5-1.5-.7-.6.4-1.3.6-2.1.7l-.2-.5c.6 0 1.1-.2 1.6-.4-.2-.1-.6-.2-1.1-.4.2-.2.3-.4.5-.7h-.8v-.5h1.1c.1-.1.2-.3.3-.6l.6.2c-.1.2-.1.3-.2.4h.9c.1-.1.1-.3.1-.4l.6.2c0 .1 0 .2-.1.2h.8v.4zm-2.5-1.9c-.4.5-.7.9-1 1.1l-.4-.4c.3-.3.7-.7.9-1.1l.5.4zm2.4-.5h-1.6v1.3h-.6v-1.3h-1.6v-.6h1.6v-1.1h.6v1.1h1.6v.6zm-2.4-.9l-.5.3c-.2-.3-.4-.5-.6-.7l.5-.3c.2.2.4.4.6.7zm.9 3.3h-.9c-.1.2-.2.3-.2.4.3.1.5.2.7.2.2-.2.3-.4.4-.6zm1.6-1.2l-.4.4-1.1-1.1.4-.4c.4.4.8.7 1.1 1.1zm-.3-2.6c-.1.2-.3.4-.6.7l-.5-.3.6-.6.5.2zm7 1.4h-4.6v1.3c0 1.3-.2 2.3-.6 3.1l-.5-.4c.3-.7.5-1.6.5-2.7v-3h5.2v1.7zm-.6-.5v-.6h-4v.6h4zm.9 2.8h-3.1l.3.2c-.3.5-.6.9-1 1.3.9 0 1.7-.1 2.5-.3-.1-.2-.4-.4-.7-.6l.5-.3c.6.6 1.1 1.1 1.4 1.6l-.5.3c-.1-.1-.2-.3-.3-.4-1.6.3-2.8.4-3.7.4l-.1-.5c.5-.3.9-.8 1.3-1.5h-1.4v-.5h4.8v.3zm-.3-1.2h-4.2v-.5h4.2v.5zm-19.7-23h54.7v16H3690z"/><path d="M3696.9 2999.7c0-.3-.1-.5-.2-.6s-.4-.3-.8-.4c-.7-.3-1.2-.6-1.5-.9s-.4-.8-.4-1.2c0-.6.2-1 .6-1.4.4-.3.9-.5 1.5-.5.4 0 .8.1 1.1.3s.6.4.7.7.3.7.3 1.1h-1.4c0-.3-.1-.6-.2-.7-.1-.2-.3-.2-.6-.2-.2 0-.4.1-.6.2s-.2.3-.2.6c0 .2.1.4.2.5.1.2.4.3.8.5.7.2 1.1.5 1.4.9.3.3.4.8.4 1.3 0 .6-.2 1-.6 1.4s-.9.5-1.5.5c-.4 0-.8-.1-1.2-.3s-.6-.4-.8-.8c-.2-.3-.3-.7-.3-1.2h1.4c0 .4.1.7.2.8.2.2.4.3.7.3.8-.2 1-.4 1-.9zm7.6-3.9h-1.7v5.6h-1.4v-5.6h-1.6v-1.1h4.7v1.1zm4.4 4.2h-1.9l-.4 1.4h-1.4l2.1-6.8h1.2l2.1 6.8h-1.5l-.2-1.4zm-1.5-1.1h1.3l-.6-2.4-.7 2.4zm6.4 2.5h-1.4v-6.8h1.4v6.8zm4.1-2.4h-.7v2.5h-1.4v-6.8h2.2c.7 0 1.2.2 1.6.5.4.4.6.9.6 1.5 0 .9-.3 1.5-1 1.9l1.2 2.8v.1h-1.5l-1-2.5zm-.7-1.2h.8c.3 0 .5-.1.6-.3s.2-.4.2-.7c0-.7-.3-1-.8-1h-.8v2zm9.3 1.1l.6-4.2h1.3l-1.2 6.8h-1.4l-.8-4-.8 4h-1.4l-1.2-6.8h1.4l.6 4.2.8-4.2h1.1l1 4.2zm6.7 1.1h-1.9l-.4 1.4h-1.4l2.1-6.8h1.2l2.1 6.8h-1.5l-.2-1.4zm-1.6-1.1h1.3l-.6-2.4-.7 2.4zm6.3-1.2l1-3h1.5l-1.8 4.3v2.4h-1.4v-2.4l-1.8-4.3h1.5l1 3z" class="fill-FFFFFF"/><path d="M3693.5 3013.9h.8v.6h-.8v1.3h-.8v-1.3h-2.6v-.4l2.5-3.9h.8v3.7h.1zm-2.5 0h1.7v-2.7l-.1.2-1.6 2.5zm6.3 1.9v-3.7h-.7v-.6h.7v-.5c0-.5.1-.8.4-1s.6-.4 1-.4h.3c.1 0 .2 0 .3.1l-.1.6h-.4c-.2 0-.4.1-.5.2-.1.1-.2.3-.2.6v.5h.9v.6h-.9v3.7h-.8v-.1zm3.3 0h-.8v-6.1h.8v6.1zm1-2.1c0-.6.2-1.1.5-1.5s.8-.6 1.4-.6c.6 0 1 .2 1.4.6.3.4.5.9.5 1.5v.1c0 .6-.2 1.1-.5 1.5s-.8.6-1.4.6-1-.2-1.4-.6-.5-.9-.5-1.6zm.8.1c0 .4.1.8.3 1.1s.5.4.8.4c.4 0 .6-.1.8-.4s.3-.7.3-1.1v-.1c0-.4-.1-.8-.3-1.1s-.5-.4-.8-.4c-.4 0-.6.1-.8.4s-.3.6-.3 1.2zm3.8-.1c0-.6.2-1.1.5-1.5s.8-.6 1.4-.6c.6 0 1 .2 1.4.6.3.4.5.9.5 1.5v.1c0 .6-.2 1.1-.5 1.5s-.8.6-1.4.6-1-.2-1.4-.6-.5-.9-.5-1.6zm.7.1c0 .4.1.8.3 1.1s.5.4.8.4c.4 0 .6-.1.8-.4s.3-.7.3-1.1v-.1c0-.4-.1-.8-.3-1.1s-.5-.4-.8-.4c-.4 0-.6.1-.8.4s-.3.6-.3 1.2zm6-1.5h-.4c-.2 0-.4 0-.5.1s-.2.2-.3.4v3h-.8v-4.2h.7l.1.6c.1-.2.3-.4.4-.5.2-.1.4-.2.6-.2h.3l-.1.8zm-22.9-22.4h58.9v16H3690z"/><path d="M3698.8 2994.7v6.8h-1.4v-5.6h-1.3l-.1 2.4c0 .8-.1 1.4-.3 1.9-.1.5-.3.8-.6 1s-.6.3-1.1.3h-.3v-1.1h.2c.3 0 .5-.2.6-.6.1-.3.2-.9.2-1.8l.1-3.3h4zm5.6 3.8h-2.1v1.8h2.5v1.1h-3.9v-6.8h3.9v1.1h-2.5v1.6h2.1v1.2zm6.7.7c0 .8-.2 1.4-.6 1.7s-1 .6-1.7.6c-.8 0-1.3-.3-1.8-.8-.4-.5-.6-1.2-.6-2.1v-1.1c0-.9.2-1.6.6-2.1.4-.5 1-.8 1.8-.8.7 0 1.3.2 1.7.6s.6 1 .7 1.8h-1.4c0-.5-.1-.8-.2-1-.1-.2-.4-.3-.7-.3-.4 0-.6.1-.8.4s-.2.7-.2 1.3v1.3c0 .7.1 1.1.2 1.4.2.3.4.4.8.4s.6-.1.7-.3.2-.5.2-.9h1.3v-.1zm6-3.4h-1.7v5.6h-1.4v-5.6h-1.6v-1.1h4.7v1.1zm6.5 5.6h-1.4v-2.9h-2v2.9h-1.4v-6.8h1.4v2.7h2v-2.7h1.4v6.8zm5.3-6.7h1.4v6.8h-1.4v-4.5l-2 4.5h-1.4v-6.8h1.4v4.5l2-4.5zm3.4 0h1.4v5.6h2v-5.6h1.4v5.6h.8l-.1 2.8h-1.3v-1.6h-4.2v-6.8zm10.6 5.3h-1.9l-.4 1.4h-1.4l2.1-6.8h1.2l2.1 6.8h-1.5l-.2-1.4zm-1.5-1.1h1.3l-.6-2.4-.7 2.4z" class="fill-FFFFFF"/><path d="M3693.5 3013.9h.8v.6h-.8v1.3h-.8v-1.3h-2.6v-.4l2.5-3.9h.8v3.7h.1zm-2.5 0h1.7v-2.7l-.1.2-1.6 2.5zm7.5-1.8c-.2 0-.5.1-.6.2-.2.2-.3.4-.3.6h-.7c0-.4.1-.7.5-1s.7-.4 1.1-.4c.6 0 1 .2 1.4.6.3.4.5.9.5 1.5v.2c0 .6-.2 1.1-.5 1.5s-.8.6-1.4.6c-.5 0-.9-.1-1.2-.4-.3-.3-.5-.6-.4-1.1h.7c0 .3.1.5.3.7s.4.3.7.3.6-.1.8-.4c.2-.3.3-.6.3-.9h-1.5v-.6h1.5c0-.3-.1-.6-.3-.9s-.6-.5-.9-.5zm6 .1h-1.4v3.6h-.8v-3.6h-1.4v-.6h3.5v.6h.1zm3.4 3.6c0-.1 0-.2-.1-.3s0-.2 0-.3c-.1.2-.3.4-.6.5s-.5.2-.7.2c-.4 0-.8-.1-1-.3s-.3-.5-.3-.9.2-.7.5-.9.8-.3 1.3-.3h.8v-.4c0-.2-.1-.4-.2-.6s-.4-.2-.6-.2c-.2 0-.4.1-.6.2-.2.1-.2.3-.2.5h-.7c0-.3.1-.6.4-.8.3-.3.7-.4 1.2-.4s.9.1 1.2.4c.3.2.4.6.4 1.1v2.4c0 .1 0 .3.1.4h-.9v-.3zm-1.3-.5c.3 0 .5-.1.8-.2s.4-.3.4-.5v-.7h-.9c-.3 0-.6.1-.7.2-.2.2-.3.3-.3.5s.1.3.2.4c.1.2.3.3.5.3zm6.4-1.3h-.5v1.8h-.8v-1.8h-.5l-1.1 1.8h-1l1.5-2.2-1.4-2h.9l1 1.7h.5v-1.7h.8v1.7h.5l1-1.7h.9l-1.4 2 1.5 2.2h-1l-.9-1.8z"/><path class="fill-C0C7CC" d="M3690 3024.4h14v14h-14z"/><path d="M3787 3024.4h14v14h-14z"/><path class="fill-FFFFFF" d="M3797.4 3032.1h3.6v-1.4h-3.6l.7-.7v-1.4l-2.7 2.8 2.7 2.8v-1.4z"/><path d="M3705 3024.4h1v14h-1zm5 0h1v14h-1zm5 0h1v14h-1zm5 0h1v14h-1zm5 0h1v14h-1zm5 0h1v14h-1zm5 0h1v14h-1zm5 0h1v14h-1zm5 0h1v14h-1zm5 0h1v14h-1zm5 0h1v14h-1zm5 0h1v14h-1zm5 0h1v14h-1zm5 0h1v14h-1zm5 0h1v14h-1zm5 0h1v14h-1zm5 0h1v14h-1zm-95-3h111v2h-111z"/><path class="fill-FFFFFF" d="M3736.948 3023.973h12.5v15h-12.5z"/><path class="fill-C0C7CC" d="M3690 3039.7h14v14h-14z"/><path d="M3787 3039.7h14v14h-14z"/><path class="fill-FFFFFF" d="M3797.4 3047.4h3.6v-1.4h-3.6l.7-.7v-1.4l-2.7 2.8 2.7 2.8v-1.4z"/><path d="M3785 3039.7h1v14h-1zm-5 0h1v14h-1zm-5 0h1v14h-1zm-5 0h1v14h-1zm-5 0h1v14h-1zm-5 0h1v14h-1zm-5 0h1v14h-1zm-5 0h1v14h-1zm-5 0h1v14h-1zm-5 0h1v14h-1zm-5 0h1v14h-1zm-5 0h1v14h-1zm-5 0h1v14h-1zm-5 0h1v14h-1zm-5 0h1v14h-1zm-5 0h1v14h-1zm-5 0h1v14h-1zm-15 15h111v2h-111z"/><path class="fill-FFFFFF" d="M3737.002 3039.181h12.5v15h-12.5z"/><path d="M2704 2228l250 433h2922v891H2990l-765-1324h479m17.3-30H2173l26 45 765 1324 8.7 15H5906v-951H2971.3L2730 2213l-8.7-15z"/><path fill="none" class="stroke-000000" d="M2990.5 3562.4l2885.5-.4v-913l-2480.2.2z"/></svg>