<svg xmlns="http://www.w3.org/2000/svg" xmlns:xlink="http://www.w3.org/1999/xlink" width="0" height="0" style="position:absolute">
	
		<symbol id="icon-phone-receiver" viewBox="0 0 578.106 578.106">
			<path d="M577.83 456.128c1.225 9.385-1.635 17.545-8.568 24.48l-81.396 80.781c-3.672 4.08-8.465 7.551-14.381 10.404-5.916 2.857-11.729 4.693-17.439 5.508-.408 0-1.635.105-3.676.309-2.037.203-4.689.307-7.953.307-7.754 0-20.301-1.326-37.641-3.979s-38.555-9.182-63.645-19.584c-25.096-10.404-53.553-26.012-85.376-46.818-31.823-20.805-65.688-49.367-101.592-85.68-28.56-28.152-52.224-55.08-70.992-80.783-18.768-25.705-33.864-49.471-45.288-71.299-11.425-21.828-19.993-41.616-25.705-59.364S4.59 177.362 2.55 164.51-.306 141.56.102 134.216c.408-7.344.612-11.424.612-12.24.816-5.712 2.652-11.526 5.508-17.442s6.324-10.71 10.404-14.382L98.022 8.756c5.712-5.712 12.24-8.568 19.584-8.568 5.304 0 9.996 1.53 14.076 4.59s7.548 6.834 10.404 11.322l65.484 124.236c3.672 6.528 4.692 13.668 3.06 21.42-1.632 7.752-5.1 14.28-10.404 19.584l-29.988 29.988c-.816.816-1.53 2.142-2.142 3.978s-.918 3.366-.918 4.59c1.632 8.568 5.304 18.36 11.016 29.376 4.896 9.792 12.444 21.726 22.644 35.802s24.684 30.293 43.452 48.653c18.36 18.77 34.68 33.354 48.96 43.76 14.277 10.4 26.215 18.053 35.803 22.949 9.588 4.896 16.932 7.854 22.031 8.871l7.648 1.531c.816 0 2.145-.307 3.979-.918 1.836-.613 3.162-1.326 3.979-2.143l34.883-35.496c7.348-6.527 15.912-9.791 25.705-9.791 6.938 0 12.443 1.223 16.523 3.672h.611l118.115 69.768c8.571 5.308 13.67 12.038 15.303 20.198z"></path>
		</symbol>
	
		<symbol id="icon-star" viewBox="0 0 19.481 19.481">
			<path d="M10.201.758l2.478 5.865 6.344.545a.5.5 0 0 1 .285.876l-4.812 4.169 1.442 6.202a.5.5 0 0 1-.745.541l-5.452-3.288-5.452 3.288a.5.5 0 0 1-.745-.541l1.442-6.202-4.813-4.17a.5.5 0 0 1 .285-.876l6.344-.545L9.28.758a.5.5 0 0 1 .921 0z"></path>
		</symbol>
	
		<symbol id="icon-star-pol" viewBox="0 0 55.867 55.867">
			<path d="M11.287 54.548a.997.997 0 0 1-.985-1.169l3.091-18.018L.302 22.602a1.001 1.001 0 0 1 .555-1.705l18.09-2.629 8.091-16.393a.996.996 0 1 1 1.792 0l8.09 16.393 18.091 2.629a1.002 1.002 0 0 1 .555 1.705L42.475 35.363l3.09 18.017c.064.375-.09.754-.397.978a.993.993 0 0 1-1.054.076l-16.18-8.506-16.182 8.506a1.008 1.008 0 0 1-.465.114zM3.149 22.584l12.016 11.713a1 1 0 0 1 .287.885L12.615 51.72l14.854-7.808a.996.996 0 0 1 .931 0l14.852 7.808-2.836-16.538a1 1 0 0 1 .287-.885l12.016-11.713-16.605-2.413a1 1 0 0 1-.753-.547L27.934 4.578l-7.427 15.047a1 1 0 0 1-.753.547L3.149 22.584z"></path>
		</symbol>
	
</svg>
