<svg version="1.1" id="floor_aero_5_svg" xmlns="http://www.w3.org/2000/svg" xmlns:xlink="http://www.w3.org/1999/xlink" viewBox="2143 2168 3793 1477" xml:space="preserve">
<g id="zones">
	<g id="A5-1" display="inline">
		<g id="area">
			<g opacity="0">
				<path d="M3398.8,2631L2973,3582h2933v-951H3398.8z" class="fill-FFFFFF"></path>
			</g>
		</g>
		<g id="hover" opacity="0">
			
				<path d="M3398.8,2631L2973,3582h2933v-951H3398.8z M5871,3545H3004l396-879h2471V3545z" class="fill-FFAC01"></path>
			
		</g>
	</g>
</g>
<g id="back-fill">
	<polygon id="1-back-fill" points="2990.5,3552.4 4170.7,3552.4 5876.6,3552.4 5876.6,2661.2 4170.7,2661.2 
		3395.8,2661.2 	" class="fill-FFFFFF"></polygon>
</g>
<g id="default-zoom">
	<polygon fill="none" points="4059.7,3615 2934.1,3611.6 2934.1,2566 4059.7,2566 	"></polygon>
</g>
<g id="inactive-objects">
	<rect x="3521.8" y="3365.4" width="147.7" height="187.3" class="fill-F2F4F6"></rect>
	<polygon points="5876.6,2661.2 5876.6,3552.4 3752.8,3552.4 3752.8,3365.4 5767.8,3365.4 5767.8,2847.8 
		3752.8,2847.8 3752.8,2661.2 	" class="fill-F2F4F6"></polygon>
	<rect x="3521.8" y="2657.9" width="147.7" height="190" class="fill-F2F4F6"></rect>
	<polygon points="4489,2955.7 4652.1,2955.7 4652.1,3302.5 4065.3,3302.5 4065.3,2911.1 4489,2911.1 	" class="fill-F2F4F6"></polygon>
	<rect x="4742.7" y="2911.1" width="881.1" height="391.4" class="fill-F2F4F6"></rect>
	<polygon points="2208.3,2220.5 2990.5,3570.4 3395.8,2649.2 2961.3,2639.9 2714.8,2220.5 	" class="fill-F2F4F6"></polygon>
</g>

<g id="objects">
	<g id="__aero5-1-001">
		<g id="hover" display="none">
			<polygon display="inline" points="3395.8,3366.9 3521.8,3366.9 3521.8,3553.4 2998.5,3553.4 3395.2,2659.5 
				3521.9,2659.5 3521.8,2846.8 3395.8,2846.8 			" class="fill-FFAC01"></polygon>
			<polyline display="inline" fill="none" stroke-width="3" stroke-miterlimit="10" points="3399.3,3086.4 
				3395.8,3086.4 3395.8,2846.8 3521.8,2846.8 3521.9,2659.5 3395.2,2659.5 2998.5,3553.4 3521.8,3553.4 3521.8,3366.9 
				3395.8,3366.9 3395.8,3103.2 3399.3,3103.2 			" class="stroke-000000"></polyline>
		</g>
		<g id="bg">
			<polygon fill="transparent" points="3395.8,3366.9 3521.8,3366.9 3521.8,3553.4 2998.5,3553.4 3395.2,2659.5 3521.9,2659.5 
				3521.8,2846.8 3395.8,2846.8 			"></polygon>
			<polyline fill="transparent" stroke-width="3" stroke-miterlimit="10" points="3399.3,3086.4 3395.8,3086.4 
				3395.8,2846.8 3521.8,2846.8 3521.9,2659.5 3395.2,2659.5 2998.5,3553.4 3521.8,3553.4 3521.8,3366.9 3395.8,3366.9 
				3395.8,3103.2 3399.3,3103.2 			" class="stroke-000000"></polyline>
		</g>
		<g id="tooltip">
			<circle fill="none" cx="3149.3" cy="3407.4" r="1"></circle>
		</g>
		<g id="label_zh">
			<text transform="matrix(1 0 0 1 3067.8823 3521.8879)" font-family="'Roboto-Regular'" font-size="30px">V Express</text>
		</g>
		<g id="label_en">
			<text transform="matrix(1 0 0 1 3067.8823 3521.8879)" font-family="'Roboto-Regular'" font-size="30px">V Express</text>
		</g>
		<g id="label_ru">
			<text transform="matrix(1 0 0 1 3067.8823 3521.7688)" font-family="'Roboto-Regular'" font-size="30px">Воздушный экспресс</text>
		</g>
	</g>
	<g id="__aero5-1-002">
		<g id="hover" display="none">
			<rect x="4489.7" y="2911.7" display="inline" width="161.1" height="43.9" class="fill-FFAC01"></rect>
			<polyline display="inline" fill="none" stroke-width="2" stroke-miterlimit="10" points="4581.3,2907.8 
				4581.3,2911.7 4650.8,2911.7 4650.8,2955.7 4489.7,2955.7 4489.7,2911.7 4565.3,2911.7 4565.3,2907.8 			" class="stroke-000000"></polyline>
		</g>
		<g id="bg">
			<rect x="4489.7" y="2911.7" fill="transparent" width="161.1" height="43.9"></rect>
			<polyline fill="transparent" stroke-width="2" stroke-miterlimit="10" points="4581.3,2907.8 4581.3,2911.7 
				4650.8,2911.7 4650.8,2955.7 4489.7,2955.7 4489.7,2911.7 4565.3,2911.7 4565.3,2907.8 			" class="stroke-000000"></polyline>
		</g>
		<g id="tooltip">
			<circle fill="none" cx="4572.4" cy="2922.4" r="1"></circle>
		</g>
		<g id="label_zh">
			<text transform="matrix(1 0 0 1 4498.459 2945.6763)" font-family="'Roboto-Regular'" font-size="18px">LOT</text>
		</g>
		<g id="label_en">
			<text transform="matrix(1 0 0 1 4498.459 2945.6763)" font-family="'Roboto-Regular'" font-size="18px">LOT</text>
		</g>
		<g id="label_ru">
			<text transform="matrix(1 0 0 1 4498.459 2945.6763)" font-family="'Roboto-Regular'" font-size="18px">LOT</text>
		</g>
	</g>
<g id="__AERO5-1-escalator001">
		<g id="area">
			<polygon fill-opacity="0" points="3808.9,3184.4 3753.3,3183.1 3755.5,3213.9 3683.5,3213.9 3683.5,3135.1 
				3808.9,3135.1 			" class="fill-FFFFFF"></polygon>
		</g>
		<g id="tooltip">
			<circle fill="none" cx="3746.9" cy="3122.7" r="1"></circle>
		</g>
		<g id="label_zh_nohover">
			<rect x="3688.2" y="3187.9" width="39.2" height="16"></rect>
			
				
					<path d="M3697.6,3193v6.3h-0.8v-0.4h-4v0.4h-0.7v-6.3h2c0.1-0.3,0.2-0.8,0.3-1.1l0.9,0.1
						c-0.1,0.3-0.3,0.7-0.4,1H3697.6z M3692.8,3193.7v1h4v-1H3692.8z M3692.8,3195.4v1h4v-1H3692.8z M3696.9,3198.2v-1h-4v1H3696.9z
						" class="fill-FFFFFF"></path>
					<path d="M3702.6,3198.1c0-0.1-0.1-0.3-0.1-0.5c-2.1,0.5-2.4,0.6-2.6,0.7l0,0l0,0c0-0.1-0.2-0.5-0.2-0.7
						c0.1,0,0.2-0.3,0.4-0.5c0.1-0.2,0.4-1.1,0.6-2h-1.1v-0.7h3.5v0.7h-1.7c-0.2,0.8-0.5,1.6-0.8,2.3l1.7-0.4
						c-0.1-0.4-0.3-0.8-0.4-1.1l0.6-0.2c0.3,0.7,0.6,1.6,0.8,2.2L3702.6,3198.1z M3702.9,3193.3h-3.1v-0.7h3.1V3193.3z
						 M3706.7,3193.7c0,0,0,0.3,0,0.4c-0.1,3.2-0.2,4.4-0.5,4.7c-0.2,0.2-0.3,0.3-0.6,0.4c-0.2,0-0.7,0-1.1,0c0-0.2-0.1-0.5-0.2-0.7
						c0.4,0,0.8,0,1,0c0.1,0,0.2,0,0.3-0.1c0.2-0.2,0.3-1.2,0.4-3.9h-1c-0.1,2-0.4,3.7-1.6,4.8c-0.1-0.2-0.4-0.4-0.6-0.6
						c1-1,1.3-2.5,1.4-4.3h-1v-0.7h1c0-0.5,0-1.1,0-1.6h0.7c0,0.6,0,1.1,0,1.6L3706.7,3193.7L3706.7,3193.7z" class="fill-FFFFFF"></path>
					<path d="M3710.5,3196.1c-0.3,0.1-0.6,0.2-0.9,0.3v2.1c0,0.4-0.1,0.6-0.3,0.7c-0.2,0.1-0.6,0.1-1.1,0.1
						c0-0.2-0.1-0.5-0.2-0.7c0.3,0,0.7,0,0.7,0c0.1,0,0.2,0,0.2-0.2v-1.9l-0.9,0.3l-0.1-0.7c0.3-0.1,0.7-0.2,1.1-0.3v-1.6h-1v-0.7h1
						v-1.6h0.7v1.6h0.9v0.7h-0.9v1.4l0.8-0.2V3196.1z M3713.3,3196.2c0.4,1.1,1,2,1.9,2.4c-0.2,0.1-0.4,0.4-0.5,0.6
						c-0.9-0.5-1.5-1.4-1.9-2.5c-0.3,0.9-1,1.8-2.1,2.5c-0.1-0.2-0.4-0.5-0.5-0.6c1.2-0.7,1.7-1.6,2-2.5h-1.5v-0.7h1.6
						c0.1-0.4,0.1-0.9,0.1-1.3v-0.1h-1.4v-0.7h1.4v-1.4h0.8v1.4h1.6v0.7h-1.6v0.1c0,0.4,0,0.8-0.1,1.3h1.9v0.7h-1.7V3196.2z" class="fill-FFFFFF"></path>
					<path d="M3718.4,3196.4c-0.1-0.2-0.3-0.6-0.5-1v3.9h-0.7v-3.5c-0.2,0.8-0.6,1.5-0.9,2c-0.1-0.2-0.2-0.5-0.4-0.7
						c0.5-0.6,1-1.8,1.2-2.9h-1v-0.7h1.1v-1.5h0.7v1.5h0.8v0.7h-0.8v0.3c0.2,0.3,0.8,1.2,0.9,1.4L3718.4,3196.4z M3723.3,3196.1
						c0,0,0,0.2,0,0.3c-0.1,1.3-0.1,1.8-0.3,2c-0.1,0.1-0.2,0.2-0.4,0.2s-0.4,0-0.7,0c0-0.2-0.1-0.5-0.2-0.7c0.2,0,0.4,0,0.5,0
						s0.2,0,0.2-0.1c0.1-0.1,0.1-0.4,0.2-1.2h-1.2v2.6h-0.7v-1.9c-0.5,0.7-1.1,1.2-1.8,1.6c-0.1-0.2-0.3-0.4-0.5-0.6
						c0.7-0.3,1.5-1,2-1.7h-1.4c0.1-0.5,0.2-1.4,0.2-2h1.5v-0.9h-1.8v-0.6h1c-0.1-0.3-0.3-0.7-0.5-1l0.6-0.2
						c0.2,0.4,0.5,0.8,0.6,1.1l-0.3,0.1h1.2c0.2-0.4,0.4-0.9,0.6-1.3l0.7,0.2c-0.2,0.4-0.4,0.8-0.6,1.1h0.9v2.1h-1.7v0.8h1.9V3196.1
						z M3719.8,3195.3c0,0.3-0.1,0.5-0.1,0.8h1v-0.8H3719.8z M3721.4,3194.7h1v-0.9h-1V3194.7z" class="fill-FFFFFF"></path>
				
			
			
				
					<path d="M3691.8,3211.9h0.8v0.6h-0.8v1.3h-0.8v-1.3h-2.6v-0.4l2.5-3.9h0.8v3.7H3691.8z M3689.3,3211.9h1.7v-2.7l0,0l-0.1,0.2
						L3689.3,3211.9z"></path>
					<path d="M3697.3,3210.7l-0.4,0.4c-0.1-0.1-0.1-0.2-0.3-0.4v3.5h-0.6v-3c-0.2,0.5-0.4,0.9-0.6,1.2l-0.3-0.6
						c0.4-0.5,0.7-1.1,0.9-1.9h-0.8v-0.6h0.8v-1.3h0.6v1.3h0.6v0.6h-0.6C3696.9,3210.1,3697.2,3210.4,3697.3,3210.7z M3701.3,3212.2
						h-1c-0.2,0.4-0.3,0.6-0.5,0.9c0.5,0.2,0.9,0.4,1.4,0.7l-0.4,0.5c-0.4-0.3-0.9-0.5-1.5-0.7c-0.6,0.4-1.3,0.6-2.1,0.7l-0.2-0.5
						c0.6,0,1.1-0.2,1.6-0.4c-0.2-0.1-0.6-0.2-1.1-0.4c0.2-0.2,0.3-0.4,0.5-0.7h-0.8v-0.5h1.1c0.1-0.1,0.2-0.3,0.3-0.6l0.6,0.2
						c-0.1,0.2-0.1,0.3-0.2,0.4h0.9c0.1-0.1,0.1-0.3,0.1-0.4l0.6,0.2c0,0.1,0,0.2-0.1,0.2h0.8L3701.3,3212.2L3701.3,3212.2z
						 M3698.7,3210.2c-0.4,0.5-0.7,0.9-1,1.1l-0.4-0.4c0.3-0.3,0.7-0.7,0.9-1.1L3698.7,3210.2z M3701.1,3209.7h-1.6v1.3h-0.6v-1.3
						h-1.6v-0.6h1.6v-1.1h0.6v1.1h1.6V3209.7z M3698.7,3208.8l-0.5,0.3c-0.2-0.3-0.4-0.5-0.6-0.7l0.5-0.3
						C3698.4,3208.3,3698.6,3208.6,3698.7,3208.8z M3699.6,3212.2h-0.9c-0.1,0.2-0.2,0.3-0.2,0.4c0.3,0.1,0.5,0.2,0.7,0.2
						C3699.4,3212.6,3699.6,3212.4,3699.6,3212.2z M3701.3,3211l-0.4,0.4c-0.3-0.3-0.7-0.7-1.1-1.1l0.4-0.4
						C3700.6,3210.2,3700.9,3210.6,3701.3,3211z M3700.9,3208.4c-0.1,0.2-0.3,0.4-0.6,0.7l-0.5-0.3c0.2-0.2,0.4-0.4,0.6-0.6
						L3700.9,3208.4z"></path>
					<path d="M3707.9,3209.8h-4.6v1.3c0,1.3-0.2,2.3-0.6,3.1l-0.5-0.4c0.3-0.7,0.5-1.6,0.5-2.7v-3h5.2L3707.9,3209.8L3707.9,3209.8z
						 M3707.3,3209.3v-0.6h-4v0.6H3707.3z M3708.3,3212.1h-3.1l0.3,0.2c-0.3,0.5-0.6,0.9-1,1.3c0.9,0,1.7-0.1,2.5-0.3
						c-0.1-0.2-0.4-0.4-0.7-0.6l0.5-0.3c0.6,0.6,1.1,1.1,1.4,1.6l-0.5,0.3c-0.1-0.1-0.2-0.3-0.3-0.4c-1.6,0.3-2.8,0.4-3.7,0.4
						l-0.1-0.5c0.5-0.3,0.9-0.8,1.3-1.5h-1.4v-0.5h4.8V3212.1z M3708,3210.9h-4.2v-0.5h4.2V3210.9z"></path>
				
			
		</g>
		<g id="label_en_nohover">
			<rect x="3688.2" y="3187.9" width="61.7" height="16"></rect>
			
				
					<path d="M3695.8,3196.5h-2.1v1.8h2.5v1.1h-3.9v-6.8h3.9v1.1h-2.5v1.6h2.1V3196.5z" class="fill-FFFFFF"></path>
					<path d="M3700.8,3197.6c0-0.3-0.1-0.5-0.2-0.6s-0.4-0.3-0.8-0.4c-0.7-0.3-1.2-0.6-1.5-0.9s-0.4-0.8-0.4-1.2
						c0-0.6,0.2-1,0.6-1.4c0.4-0.3,0.9-0.5,1.5-0.5c0.4,0,0.8,0.1,1.1,0.3s0.6,0.4,0.7,0.7s0.3,0.7,0.3,1.1h-1.4
						c0-0.3-0.1-0.6-0.2-0.7c-0.1-0.2-0.3-0.2-0.6-0.2c-0.2,0-0.4,0.1-0.6,0.2s-0.2,0.3-0.2,0.6c0,0.2,0.1,0.4,0.2,0.5
						c0.1,0.2,0.4,0.3,0.8,0.5c0.7,0.2,1.1,0.5,1.4,0.9c0.3,0.3,0.4,0.8,0.4,1.3c0,0.6-0.2,1-0.6,1.4s-0.9,0.5-1.5,0.5
						c-0.4,0-0.8-0.1-1.2-0.3s-0.6-0.4-0.8-0.8c-0.2-0.3-0.3-0.7-0.3-1.2h1.4c0,0.4,0.1,0.7,0.2,0.8c0.2,0.2,0.4,0.3,0.7,0.3
						C3700.6,3198.4,3700.8,3198.1,3700.8,3197.6z" class="fill-FFFFFF"></path>
					<path d="M3708.6,3197.1c0,0.8-0.2,1.4-0.6,1.7s-1,0.6-1.7,0.6c-0.8,0-1.3-0.3-1.8-0.8c-0.4-0.5-0.6-1.2-0.6-2.1
						v-1.1c0-0.9,0.2-1.6,0.6-2.1c0.4-0.5,1-0.8,1.8-0.8c0.7,0,1.3,0.2,1.7,0.6s0.6,1,0.7,1.8h-1.4c0-0.5-0.1-0.8-0.2-1
						c-0.1-0.2-0.4-0.3-0.7-0.3c-0.4,0-0.6,0.1-0.8,0.4s-0.2,0.7-0.2,1.3v1.3c0,0.7,0.1,1.1,0.2,1.4c0.2,0.3,0.4,0.4,0.8,0.4
						c0.4,0,0.6-0.1,0.7-0.3s0.2-0.5,0.2-0.9h1.3V3197.1z" class="fill-FFFFFF"></path>
					<path d="M3713.6,3198h-1.9l-0.4,1.4h-1.4l2.1-6.8h1.2l2.1,6.8h-1.5L3713.6,3198z M3712.1,3196.9h1.3l-0.6-2.4
						L3712.1,3196.9z" class="fill-FFFFFF"></path>
					<path d="M3718.4,3198.3h2.4v1.1h-3.8v-6.8h1.4L3718.4,3198.3L3718.4,3198.3z" class="fill-FFFFFF"></path>
					<path d="M3725.8,3198h-1.9l-0.4,1.4h-1.4l2.1-6.8h1.2l2.1,6.8h-1.5L3725.8,3198z M3724.3,3196.9h1.3l-0.6-2.4
						L3724.3,3196.9z" class="fill-FFFFFF"></path>
					<path d="M3733.1,3193.8h-1.7v5.6h-1.4v-5.6h-1.6v-1.1h4.7V3193.8z" class="fill-FFFFFF"></path>
					<path d="M3739.4,3196.6c0,0.9-0.2,1.6-0.6,2.1c-0.4,0.5-1,0.8-1.8,0.8s-1.4-0.2-1.8-0.7
						c-0.4-0.5-0.7-1.2-0.7-2.1v-1.2c0-0.9,0.2-1.7,0.6-2.2c0.4-0.5,1-0.8,1.8-0.8s1.3,0.3,1.8,0.8s0.7,1.2,0.7,2.2V3196.6z
						 M3738,3195.5c0-0.6-0.1-1.1-0.3-1.4c-0.2-0.3-0.4-0.4-0.8-0.4c-0.4,0-0.6,0.1-0.8,0.4s-0.3,0.7-0.3,1.3v1.2
						c0,0.6,0.1,1,0.3,1.3s0.4,0.4,0.8,0.4c0.4,0,0.6-0.1,0.8-0.4c0.2-0.3,0.3-0.7,0.3-1.3V3195.5z" class="fill-FFFFFF"></path>
					<path d="M3743.4,3196.9h-0.7v2.5h-1.4v-6.8h2.2c0.7,0,1.2,0.2,1.6,0.5c0.4,0.4,0.6,0.9,0.6,1.5
						c0,0.9-0.3,1.5-1,1.9l1.2,2.8v0.1h-1.5L3743.4,3196.9z M3742.7,3195.8h0.8c0.3,0,0.5-0.1,0.6-0.3s0.2-0.4,0.2-0.7
						c0-0.7-0.3-1-0.8-1h-0.8V3195.8z" class="fill-FFFFFF"></path>
				
			
			
				
					<path d="M3691.8,3211.9h0.8v0.6h-0.8v1.3h-0.8v-1.3h-2.6v-0.4l2.5-3.9h0.8v3.7H3691.8z M3689.3,3211.9h1.7v-2.7l0,0l-0.1,0.2
						L3689.3,3211.9z"></path>
					<path d="M3695.6,3213.8v-3.7h-0.7v-0.6h0.7v-0.5c0-0.5,0.1-0.8,0.4-1c0.2-0.2,0.6-0.4,1-0.4c0.1,0,0.2,0,0.3,0s0.2,0,0.3,0.1
						l-0.1,0.6c0,0-0.1,0-0.2,0s-0.1,0-0.2,0c-0.2,0-0.4,0.1-0.5,0.2c-0.1,0.1-0.2,0.3-0.2,0.6v0.5h0.9v0.6h-0.9v3.7h-0.8V3213.8z"></path>
					<path d="M3698.9,3213.8h-0.8v-6.1h0.8V3213.8z"></path>
					<path d="M3699.9,3211.7c0-0.6,0.2-1.1,0.5-1.5s0.8-0.6,1.4-0.6c0.6,0,1,0.2,1.4,0.6c0.3,0.4,0.5,0.9,0.5,1.5v0.1
						c0,0.6-0.2,1.1-0.5,1.5s-0.8,0.6-1.4,0.6c-0.6,0-1-0.2-1.4-0.6S3699.9,3212.4,3699.9,3211.7L3699.9,3211.7z M3700.6,3211.7
						c0,0.4,0.1,0.8,0.3,1.1s0.5,0.4,0.8,0.4c0.4,0,0.6-0.1,0.8-0.4c0.2-0.3,0.3-0.7,0.3-1.1v-0.1c0-0.4-0.1-0.8-0.3-1.1
						s-0.5-0.4-0.8-0.4c-0.4,0-0.6,0.1-0.8,0.4C3700.7,3210.8,3700.6,3211.2,3700.6,3211.7L3700.6,3211.7z"></path>
					<path d="M3704.4,3211.7c0-0.6,0.2-1.1,0.5-1.5s0.8-0.6,1.4-0.6c0.6,0,1,0.2,1.4,0.6c0.3,0.4,0.5,0.9,0.5,1.5v0.1
						c0,0.6-0.2,1.1-0.5,1.5s-0.8,0.6-1.4,0.6c-0.6,0-1-0.2-1.4-0.6S3704.4,3212.4,3704.4,3211.7L3704.4,3211.7z M3705.2,3211.7
						c0,0.4,0.1,0.8,0.3,1.1s0.5,0.4,0.8,0.4c0.4,0,0.6-0.1,0.8-0.4c0.2-0.3,0.3-0.7,0.3-1.1v-0.1c0-0.4-0.1-0.8-0.3-1.1
						s-0.5-0.4-0.8-0.4c-0.4,0-0.6,0.1-0.8,0.4C3705.3,3210.8,3705.2,3211.2,3705.2,3211.7L3705.2,3211.7z"></path>
					<path d="M3711.1,3210.3h-0.4c-0.2,0-0.4,0-0.5,0.1s-0.2,0.2-0.3,0.4v3h-0.8v-4.2h0.7l0.1,0.6c0.1-0.2,0.3-0.4,0.4-0.5
						c0.2-0.1,0.4-0.2,0.6-0.2c0.1,0,0.1,0,0.2,0c0.1,0,0.1,0,0.1,0L3711.1,3210.3z"></path>
				
			
		</g>
		<g id="label_ru_nohover">
			<rect x="3688.2" y="3187.9" width="64.9" height="16"></rect>
			
				
					<path d="M3694.2,3197.1c0,0.4,0.1,0.7,0.3,0.9c0.1,0.2,0.4,0.3,0.7,0.3c0.4,0,0.6-0.1,0.8-0.4
						c0.2-0.3,0.2-0.7,0.3-1.3h-1.6v-1.1h1.6c0-0.6-0.1-1-0.3-1.3s-0.4-0.4-0.8-0.4c-0.3,0-0.6,0.1-0.7,0.3c-0.2,0.2-0.2,0.5-0.3,1
						h-1.4c0.1-0.8,0.3-1.3,0.7-1.8s0.9-0.6,1.6-0.6c0.7,0,1.3,0.3,1.8,0.9c0.4,0.6,0.7,1.4,0.7,2.4v0.4c0,1-0.2,1.8-0.6,2.4
						c-0.4,0.6-1,0.9-1.8,0.9c-0.7,0-1.2-0.2-1.7-0.6c-0.4-0.4-0.6-1-0.7-1.7h1.4V3197.1z" class="fill-FFFFFF"></path>
					<path d="M3704,3197.1c0,0.8-0.2,1.4-0.6,1.7s-1,0.6-1.7,0.6c-0.8,0-1.3-0.3-1.8-0.8c-0.4-0.5-0.6-1.2-0.6-2.1
						v-1.1c0-0.9,0.2-1.6,0.6-2.1c0.4-0.5,1-0.8,1.8-0.8c0.7,0,1.3,0.2,1.7,0.6s0.6,1,0.7,1.8h-1.4c0-0.5-0.1-0.8-0.2-1
						c-0.1-0.2-0.4-0.3-0.7-0.3c-0.4,0-0.6,0.1-0.8,0.4s-0.2,0.7-0.2,1.3v1.3c0,0.7,0.1,1.1,0.2,1.4c0.2,0.3,0.4,0.4,0.8,0.4
						c0.4,0,0.6-0.1,0.7-0.3s0.2-0.5,0.2-0.9h1.3V3197.1z" class="fill-FFFFFF"></path>
					<path d="M3707.7,3196.6h-0.6v2.8h-1.4v-6.8h1.4v2.7h0.5l1.2-2.7h1.7l-1.7,3.1l1.8,3.6h-1.6L3707.7,3196.6z" class="fill-FFFFFF"></path>
					<path d="M3715.3,3198h-1.9l-0.4,1.4h-1.4l2.1-6.8h1.2l2.1,6.8h-1.5L3715.3,3198z M3713.7,3196.9h1.3l-0.6-2.4
						L3713.7,3196.9z" class="fill-FFFFFF"></path>
					<path d="M3723.5,3192.6v6.8h-1.4v-5.6h-1.3l-0.1,2.4c0,0.8-0.1,1.4-0.3,1.9c-0.1,0.5-0.3,0.8-0.6,1
						s-0.6,0.3-1.1,0.3h-0.3v-1.1h0.2c0.3,0,0.5-0.2,0.6-0.6c0.1-0.3,0.2-0.9,0.2-1.8l0.1-3.3L3723.5,3192.6L3723.5,3192.6z" class="fill-FFFFFF"></path>
					<path d="M3728.9,3198h-1.9l-0.4,1.4h-1.4l2.1-6.8h1.2l2.1,6.8h-1.5L3728.9,3198z M3727.3,3196.9h1.3l-0.6-2.4
						L3727.3,3196.9z" class="fill-FFFFFF"></path>
					<path d="M3736.1,3193.8h-1.7v5.6h-1.4v-5.6h-1.6v-1.1h4.7V3193.8z" class="fill-FFFFFF"></path>
					<path d="M3742.5,3196.6c0,0.9-0.2,1.6-0.6,2.1c-0.4,0.5-1,0.8-1.8,0.8s-1.4-0.2-1.8-0.7
						c-0.4-0.5-0.7-1.2-0.7-2.1v-1.2c0-0.9,0.2-1.7,0.6-2.2c0.4-0.5,1-0.8,1.8-0.8s1.3,0.3,1.8,0.8s0.7,1.2,0.7,2.2V3196.6z
						 M3741.1,3195.5c0-0.6-0.1-1.1-0.3-1.4c-0.2-0.3-0.4-0.4-0.8-0.4c-0.4,0-0.6,0.1-0.8,0.4s-0.3,0.7-0.3,1.3v1.2
						c0,0.6,0.1,1,0.3,1.3s0.4,0.4,0.8,0.4c0.4,0,0.6-0.1,0.8-0.4c0.2-0.3,0.3-0.7,0.3-1.3V3195.5z" class="fill-FFFFFF"></path>
					<path d="M3745.7,3197v2.4h-1.4v-6.8h2.3c0.7,0,1.2,0.2,1.6,0.6c0.4,0.4,0.6,1,0.6,1.6c0,0.7-0.2,1.2-0.6,1.6
						s-0.9,0.6-1.6,0.6L3745.7,3197L3745.7,3197z M3745.7,3195.9h0.9c0.3,0,0.5-0.1,0.6-0.3s0.2-0.4,0.2-0.7s-0.1-0.6-0.2-0.8
						c-0.1-0.2-0.3-0.3-0.6-0.3h-1v2.1H3745.7z" class="fill-FFFFFF"></path>
				
			
			
				
					<path d="M3691.7,3212h0.8v0.6h-0.8v1.3h-0.8v-1.3h-2.6v-0.4l2.5-3.9h0.8v3.7H3691.7z M3689.2,3212h1.7v-2.7l0,0l-0.1,0.2
						L3689.2,3212z"></path>
					<path d="M3696.7,3210.2c-0.2,0-0.5,0.1-0.6,0.2s-0.3,0.4-0.3,0.6h-0.7l0,0c0-0.4,0.1-0.7,0.5-1s0.7-0.4,1.1-0.4
						c0.6,0,1,0.2,1.4,0.6s0.5,0.9,0.5,1.5v0.2c0,0.6-0.2,1.1-0.5,1.5s-0.8,0.6-1.4,0.6c-0.5,0-0.9-0.1-1.2-0.4s-0.5-0.7-0.4-1.1
						l0,0h0.7c0,0.3,0.1,0.5,0.3,0.7s0.4,0.3,0.7,0.3s0.6-0.1,0.8-0.4s0.3-0.6,0.3-0.9l0,0h-1.5v-0.6h1.5l0,0c0-0.3-0.1-0.6-0.3-0.9
						S3697,3210.2,3696.7,3210.2z"></path>
					<path d="M3702.7,3210.3h-1.4v3.6h-0.8v-3.6h-1.4v-0.6h3.5v0.6H3702.7z"></path>
					<path d="M3706.1,3213.9c0-0.1,0-0.2-0.1-0.3s0-0.2,0-0.3c-0.1,0.2-0.3,0.4-0.6,0.5s-0.5,0.2-0.7,0.2c-0.4,0-0.8-0.1-1-0.3
						s-0.3-0.5-0.3-0.9s0.2-0.7,0.5-0.9s0.8-0.3,1.3-0.3h0.8v-0.4c0-0.2-0.1-0.4-0.2-0.6s-0.4-0.2-0.6-0.2c-0.2,0-0.4,0.1-0.6,0.2
						s-0.2,0.3-0.2,0.5h-0.7l0,0c0-0.3,0.1-0.6,0.4-0.8s0.7-0.4,1.2-0.4s0.9,0.1,1.2,0.4s0.4,0.6,0.4,1.1v2c0,0.2,0,0.3,0,0.4
						s0,0.3,0.1,0.4h-0.9V3213.9z M3704.8,3213.4c0.3,0,0.5-0.1,0.8-0.2c0.2-0.1,0.4-0.3,0.4-0.5v-0.7h-0.9c-0.3,0-0.6,0.1-0.7,0.2
						c-0.2,0.2-0.3,0.3-0.3,0.5s0.1,0.3,0.2,0.4C3704.4,3213.3,3704.5,3213.4,3704.8,3213.4z"></path>
					<path d="M3711.2,3212.1h-0.5v1.8h-0.8v-1.8h-0.5l-1.1,1.8h-1l1.5-2.2l-1.4-2h0.9l1,1.7h0.5v-1.7h0.8v1.7h0.5l1-1.7h0.9l-1.4,2
						l1.5,2.2h-1L3711.2,3212.1z"></path>
				
			
		</g>
		
			
				
					
						<rect x="3794" y="3141.9" width="1" height="12"></rect>
					
				
				
					
						<rect x="3749" y="3141.9" width="1" height="12"></rect>
					
				
				
					
						<rect x="3744" y="3141.9" width="1" height="12"></rect>
					
				
				
					
						<rect x="3739" y="3141.9" width="1" height="12"></rect>
					
				
				
					
						<rect x="3734" y="3141.9" width="1" height="12"></rect>
					
				
				
					
						<rect x="3729" y="3141.9" width="1" height="12"></rect>
					
				
				
					
						<rect x="3769" y="3141.9" width="1" height="12"></rect>
					
				
				
					
						<rect x="3764" y="3141.9" width="1" height="12"></rect>
					
				
				
					
						<rect x="3759" y="3141.9" width="1" height="12"></rect>
					
				
				
					
						<rect x="3754" y="3141.9" width="1" height="12"></rect>
					
				
				
					
						<rect x="3789" y="3141.9" width="1" height="12"></rect>
					
				
				
					
						<rect x="3784" y="3141.9" width="1" height="12"></rect>
					
				
				
					
						<rect x="3779" y="3141.9" width="1" height="12"></rect>
					
				
				
					
						<rect x="3774" y="3141.9" width="1" height="12"></rect>
					
				
				
					
						<rect x="3724" y="3141.9" width="1" height="12"></rect>
					
				
				
					
						<rect x="3719" y="3141.9" width="1" height="12"></rect>
					
				
				
					
						<rect x="3714" y="3141.9" width="1" height="12"></rect>
					
				
				
					
						<rect x="3709" y="3141.9" width="1" height="12"></rect>
					
				
				
					
						<rect x="3704" y="3141.9" width="1" height="12"></rect>
					
				
				
					
						<rect x="3699" y="3141.9" width="1" height="12"></rect>
					
				
			
			<rect x="3796" y="3142.9" width="10" height="10" class="fill-C0C7CC"></rect>
			<rect x="3688" y="3163.9" width="10" height="10" class="fill-C0C7CC"></rect>
			<g id="XMLID">
				<rect x="3688" y="3142.9" width="10" height="10"></rect>
				
					<polygon points="3690.5,3147.4 3688,3147.4 3688,3148.4 3690.5,3148.4 3690,3148.9 3690,3149.9 3692,3147.9 
						3690,3145.9 3690,3146.9 					" class="fill-FFFFFF"></polygon>
				
			</g>
			
				
					
						<rect x="3794" y="3162.9" width="1" height="12"></rect>
					
				
				
					
						<rect x="3749" y="3162.9" width="1" height="12"></rect>
					
				
				
					
						<rect x="3744" y="3162.9" width="1" height="12"></rect>
					
				
				
					
						<rect x="3739" y="3162.9" width="1" height="12"></rect>
					
				
				
					
						<rect x="3734" y="3162.9" width="1" height="12"></rect>
					
				
				
					
						<rect x="3729" y="3162.9" width="1" height="12"></rect>
					
				
				
					
						<rect x="3724" y="3162.9" width="1" height="12"></rect>
					
				
				
					
						<rect x="3719" y="3162.9" width="1" height="12"></rect>
					
				
				
					
						<rect x="3714" y="3162.9" width="1" height="12"></rect>
					
				
				
					
						<rect x="3709" y="3162.9" width="1" height="12"></rect>
					
				
				
					
						<rect x="3789" y="3162.9" width="1" height="12"></rect>
					
				
				
					
						<rect x="3784" y="3162.9" width="1" height="12"></rect>
					
				
				
					
						<rect x="3779" y="3162.9" width="1" height="12"></rect>
					
				
				
					
						<rect x="3774" y="3162.9" width="1" height="12"></rect>
					
				
				
					
						<rect x="3769" y="3162.9" width="1" height="12"></rect>
					
				
				
					
						<rect x="3764" y="3162.9" width="1" height="12"></rect>
					
				
				
					
						<rect x="3759" y="3162.9" width="1" height="12"></rect>
					
				
				
					
						<rect x="3754" y="3162.9" width="1" height="12"></rect>
					
				
				
					
						<rect x="3704" y="3162.9" width="1" height="12"></rect>
					
				
				
					
						<rect x="3699" y="3162.9" width="1" height="12"></rect>
					
				
			
			<g id="XMLID">
				<rect x="3796" y="3163.9" width="10" height="10"></rect>
				
					<polygon points="3803.4,3169.4 3806,3169.4 3806,3168.4 3803.4,3168.4 3803.9,3167.9 3803.9,3166.9 
						3802,3168.9 3803.9,3170.9 3803.9,3169.9 					" class="fill-FFFFFF"></polygon>
				
			</g>
			
				<path d="M3689,3160.6v-4.4c0-0.7,0.6-1.3,1.3-1.3h113.4c0.7,0,1.3,0.6,1.3,1.3v4.4c0,0.7-0.6,1.3-1.3,1.3h-113.4
					C3689.5,3161.9,3689,3161.3,3689,3160.6z" class="fill-FFFFFF"></path>
				<path d="M3688,3160.6v-4.4c0-1.3,1-2.3,2.3-2.3h113.4c1.3,0,2.3,1,2.3,2.3v4.4c0,1.3-1,2.3-2.3,2.3h-113.4
					C3689,3162.9,3688,3161.8,3688,3160.6z M3804,3156.2c0-0.2-0.1-0.3-0.3-0.3h-113.4c-0.2,0-0.3,0.1-0.3,0.3v4.4
					c0,0.2,0.1,0.3,0.3,0.3h113.4c0.2,0,0.3-0.1,0.3-0.3V3156.2z"></path>
			
			
				<path d="M3688.9,3139.6v-2.4c0-0.7,0.6-1.3,1.3-1.3h113.4c0.7,0,1.3,0.6,1.3,1.3v2.4c0,0.7-0.6,1.3-1.3,1.3
					h-113.4C3689.5,3140.9,3688.9,3140.3,3688.9,3139.6z" class="fill-FFFFFF"></path>
				<path d="M3688,3139.6v-2.4c0-1.3,1-2.3,2.3-2.3h113.9c1.3,0,1.8,1,1.8,2.3v2.4c0,1.3-1,2.3-2.3,2.3h-113.4
					C3689,3141.9,3688,3140.9,3688,3139.6z M3804,3137.2c0-0.2-0.1-0.3-0.3-0.3h-113.4c-0.2,0-0.3,0.1-0.3,0.3v2.4
					c0,0.2,0.1,0.3,0.3,0.3h113.4c0.2,0,0.3-0.1,0.3-0.3V3137.2z"></path>
			
			
				<path d="M3684,3159.2c0-0.2,0.1-0.3,0.2-0.3h125.5c0.1,0,0.2,0.1,0.2,0.3s-0.1,0.3-0.2,0.3h-125.5
					C3684.1,3159.5,3684,3159.4,3684,3159.2z"></path>
			
			
				<path d="M3684,3157.6c0-0.2,0.1-0.3,0.2-0.3h125.5c0.1,0,0.2,0.1,0.2,0.3s-0.1,0.3-0.2,0.3h-125.5
					C3684.1,3157.9,3684,3157.7,3684,3157.6z"></path>
			
			
				<path d="M3684,3138.4c0-0.2,0.1-0.3,0.2-0.3h125.5c0.1,0,0.2,0.1,0.2,0.3s-0.1,0.3-0.2,0.3h-125.5
					C3684.1,3138.7,3684,3138.5,3684,3138.4z"></path>
			
			
				<path d="M3688.9,3179.6v-2.4c0-0.7,0.6-1.3,1.3-1.3h113.4c0.7,0,1.3,0.6,1.3,1.3v2.4c0,0.7-0.6,1.3-1.3,1.3
					h-113.4C3689.5,3180.9,3688.9,3180.3,3688.9,3179.6z" class="fill-FFFFFF"></path>
				<path d="M3688,3179.6v-2.4c0-1.3,1-2.3,2.3-2.3h113.4c1.3,0,2.3,1,2.3,2.3v2.4c0,1.3-1,2.3-2.3,2.3h-113.4
					C3689,3181.9,3688,3180.9,3688,3179.6z M3804,3177.2c0-0.2-0.1-0.3-0.3-0.3h-113.4c-0.2,0-0.3,0.1-0.3,0.3v2.4
					c0,0.2,0.1,0.3,0.3,0.3h113.4c0.2,0,0.3-0.1,0.3-0.3V3177.2z"></path>
			
			
				<path d="M3684,3178.4c0-0.2,0.1-0.3,0.2-0.3h125.5c0.1,0,0.2,0.1,0.2,0.3s-0.1,0.3-0.2,0.3h-125.5
					C3684.1,3178.7,3684,3178.5,3684,3178.4z"></path>
			
		
		<g id="hover" display="none">
			<rect x="3796" y="3163.9" display="inline" width="10" height="10" class="fill-FFAC01"></rect>
			<rect x="3688" y="3142.9" display="inline" width="10" height="10" class="fill-FFAC01"></rect>
			<g display="inline">
				<polygon points="3803.4,3169.4 3806,3169.4 3806,3168.4 3803.4,3168.4 3803.9,3167.9 3803.9,3166.9 3802,3168.9 
					3803.9,3170.9 3803.9,3169.9 				" class="fill-FFFFFF"></polygon>
			</g>
			<g display="inline">
				<polygon points="3690.5,3147.4 3688,3147.4 3688,3148.4 3690.5,3148.4 3690,3148.9 3690,3149.9 3692,3147.9 
					3690,3145.9 3690,3146.9 				" class="fill-FFFFFF"></polygon>
			</g>
		</g>
	</g><g id="__AERO5-1-elevator001">
		<g id="area">
			<polygon fill-opacity="0" points="3688.5,3135.1 3646.1,3135.1 3646.1,3095.7 3587,3095.7 3587,3053.4 
				3688.5,3053.4 			" class="fill-FFFFFF"></polygon>
		</g>
		<g id="tooltip">
			<circle fill="none" cx="3668.5" cy="3044.3" r="1"></circle>
		</g>
		<g id="label_zh_nohover">
			<rect x="3612.9" y="3067.5" width="23" height="16"></rect>
			
				
					<path d="M3622.2,3078c0.4,0,0.5-0.2,0.6-1.2c0.2,0.1,0.5,0.3,0.7,0.3c-0.1,1.2-0.3,1.7-1.2,1.7h-1.6
						c-1,0-1.3-0.3-1.3-1.3v-0.7h-1.8v0.5h-0.8v-4.6h2.6v-1.1h0.8v1.1h2.6v4.1h-2.6v0.7c0,0.5,0.1,0.6,0.5,0.6h1.5V3078z
						 M3617.6,3073.4v1h1.8v-1H3617.6z M3619.4,3076v-1h-1.8v1H3619.4z M3620.2,3073.4v1h1.8v-1H3620.2z M3622,3076v-1h-1.8v1H3622z
						" class="fill-FFFFFF"></path>
					<path d="M3626.2,3074.3c0.2,0.3,0.8,1.1,1,1.4l-0.3,0.4c-0.1-0.2-0.4-0.7-0.7-1.1v4h-0.5v-4
						c-0.3,0.9-0.7,1.9-1.1,2.4c-0.1-0.1-0.2-0.4-0.3-0.5c0.5-0.7,1.1-2,1.3-3.1h-1.2v-0.5h1.2v-1.8h0.7c0,0-0.1,0.1-0.2,0.1v1.6h1
						v0.5h-1v0.6H3626.2z M3631.5,3075.8h0.3c0,0,0,0.1,0,0.2c-0.1,1.4-0.2,1.9-0.3,2.1c-0.2,0.2-0.4,0.2-0.8,0.2
						c-0.1,0-0.3,0-0.5,0c0-0.1-0.1-0.4-0.1-0.5c0.3,0,0.6,0,0.7,0c0.1,0,0.2,0,0.2-0.1c0.1-0.1,0.2-0.5,0.2-1.4h-1.5v2.7h-0.5v-2.1
						c-0.5,0.8-1.3,1.5-2,1.9c-0.1-0.1-0.2-0.3-0.4-0.4c0.8-0.4,1.7-1.2,2.2-2h-1.2c0,0.1,0,0.2-0.1,0.3l-0.5-0.1
						c0.2-0.6,0.3-1.5,0.4-2.1h1.6v-1h-1.8v-0.5h1c-0.1-0.3-0.3-0.8-0.5-1.2l0.4-0.2c0.2,0.4,0.4,0.8,0.5,1.1l-0.4,0.2h1.9l-0.3-0.1
						c0.2-0.3,0.4-0.8,0.5-1.2l0.6,0.2c0,0-0.1,0.1-0.2,0.1c-0.1,0.3-0.4,0.7-0.6,1h1v2h-1.8v0.9h1.6L3631.5,3075.8z M3629.2,3074.8
						h-1.1l-0.2,0.9h1.3V3074.8z M3629.7,3073.3v1h1.3v-1H3629.7z" class="fill-FFFFFF"></path>
				
			
			
				
					<path d="M3616.4,3091.5h0.8v0.6h-0.8v1.3h-0.8v-1.3h-2.6v-0.4l2.5-3.9h0.8v3.7H3616.4z M3613.9,3091.5h1.7v-2.7l0,0l-0.1,0.2
						L3613.9,3091.5z"></path>
					<path d="M3622,3090.2l-0.4,0.4c-0.1-0.1-0.1-0.2-0.3-0.4v3.5h-0.6v-3c-0.2,0.5-0.4,0.9-0.6,1.2l-0.3-0.6
						c0.4-0.5,0.7-1.1,0.9-1.9h-0.8v-0.6h0.8v-1.3h0.6v1.3h0.6v0.6h-0.6C3621.6,3089.7,3621.8,3090,3622,3090.2z M3625.9,3091.7h-1
						c-0.2,0.4-0.3,0.6-0.5,0.9c0.5,0.2,0.9,0.4,1.4,0.7l-0.4,0.5c-0.4-0.3-0.9-0.5-1.5-0.7c-0.6,0.4-1.3,0.6-2.1,0.7l-0.2-0.5
						c0.6,0,1.1-0.2,1.6-0.4c-0.2-0.1-0.6-0.2-1.1-0.4c0.2-0.2,0.3-0.4,0.5-0.7h-0.8v-0.5h1.1c0.1-0.1,0.2-0.3,0.3-0.6l0.6,0.2
						c-0.1,0.2-0.1,0.3-0.2,0.4h0.9c0.1-0.1,0.1-0.3,0.1-0.4l0.6,0.2c0,0.1,0,0.2-0.1,0.2h0.8L3625.9,3091.7L3625.9,3091.7z
						 M3623.4,3089.8c-0.4,0.5-0.7,0.9-1,1.1l-0.4-0.4c0.3-0.3,0.7-0.7,0.9-1.1L3623.4,3089.8z M3625.8,3089.3h-1.6v1.3h-0.6v-1.3
						h-1.6v-0.6h1.6v-1.1h0.6v1.1h1.6V3089.3z M3623.4,3088.4l-0.5,0.3c-0.2-0.3-0.4-0.5-0.6-0.7l0.5-0.3
						C3623,3087.9,3623.2,3088.1,3623.4,3088.4z M3624.3,3091.7h-0.9c-0.1,0.2-0.2,0.3-0.2,0.4c0.3,0.1,0.5,0.2,0.7,0.2
						C3624.1,3092.2,3624.2,3091.9,3624.3,3091.7z M3625.9,3090.5l-0.4,0.4c-0.3-0.3-0.7-0.7-1.1-1.1l0.4-0.4
						C3625.2,3089.8,3625.6,3090.2,3625.9,3090.5z M3625.6,3088c-0.1,0.2-0.3,0.4-0.6,0.7l-0.5-0.3c0.2-0.2,0.4-0.4,0.6-0.6
						L3625.6,3088z"></path>
					<path d="M3632.6,3089.4h-4.6v1.3c0,1.3-0.2,2.3-0.6,3.1l-0.5-0.4c0.3-0.7,0.5-1.6,0.5-2.7v-3h5.2L3632.6,3089.4L3632.6,3089.4z
						 M3632,3088.8v-0.6h-4v0.6H3632z M3633,3091.7h-3.1l0.3,0.2c-0.3,0.5-0.6,0.9-1,1.3c0.9,0,1.7-0.1,2.5-0.3
						c-0.1-0.2-0.4-0.4-0.7-0.6l0.5-0.3c0.6,0.6,1.1,1.1,1.4,1.6l-0.5,0.3c-0.1-0.1-0.2-0.3-0.3-0.4c-1.6,0.3-2.8,0.4-3.7,0.4
						l-0.1-0.5c0.5-0.3,0.9-0.8,1.3-1.5h-1.4v-0.5h4.8V3091.7z M3632.6,3090.5h-4.2v-0.5h4.2V3090.5z"></path>
				
			
		</g>
		<g id="label_en_nohover">
			<rect x="3587" y="3067.5" width="54.4" height="16"></rect>
			
				
					<path d="M3594.7,3076h-2.1v1.8h2.5v1.1h-3.9v-6.8h3.9v1.1h-2.5v1.6h2.1V3076z" class="fill-FFFFFF"></path>
					<path d="M3598.2,3077.8h2.4v1.1h-3.8v-6.8h1.4L3598.2,3077.8L3598.2,3077.8z" class="fill-FFFFFF"></path>
					<path d="M3605.8,3076h-2.1v1.8h2.5v1.1h-3.9v-6.8h3.9v1.1h-2.5v1.6h2.1V3076z" class="fill-FFFFFF"></path>
					<path d="M3610.1,3077.1l1.1-4.9h1.5l-1.9,6.8h-1.4l-1.9-6.8h1.5L3610.1,3077.1z" class="fill-FFFFFF"></path>
					<path d="M3617.2,3077.6h-1.9l-0.4,1.4h-1.4l2.1-6.8h1.2l2.1,6.8h-1.5L3617.2,3077.6z M3615.7,3076.4h1.3
						l-0.6-2.4L3615.7,3076.4z" class="fill-FFFFFF"></path>
					<path d="M3624.4,3073.3h-1.7v5.6h-1.4v-5.6h-1.6v-1.1h4.7V3073.3z" class="fill-FFFFFF"></path>
					<path d="M3630.8,3076.2c0,0.9-0.2,1.6-0.6,2.1c-0.4,0.5-1,0.8-1.8,0.8s-1.4-0.2-1.8-0.7
						c-0.4-0.5-0.7-1.2-0.7-2.1v-1.2c0-0.9,0.2-1.7,0.6-2.2c0.4-0.5,1-0.8,1.8-0.8s1.3,0.3,1.8,0.8s0.7,1.2,0.7,2.2V3076.2z
						 M3629.4,3075.1c0-0.6-0.1-1.1-0.3-1.4c-0.2-0.3-0.4-0.4-0.8-0.4c-0.4,0-0.6,0.1-0.8,0.4s-0.3,0.7-0.3,1.3v1.2
						c0,0.6,0.1,1,0.3,1.3s0.4,0.4,0.8,0.4c0.4,0,0.6-0.1,0.8-0.4c0.2-0.3,0.3-0.7,0.3-1.3V3075.1z" class="fill-FFFFFF"></path>
					<path d="M3634.8,3076.5h-0.7v2.5h-1.4v-6.8h2.2c0.7,0,1.2,0.2,1.6,0.5c0.4,0.4,0.6,0.9,0.6,1.5
						c0,0.9-0.3,1.5-1,1.9l1.2,2.8v0.1h-1.5L3634.8,3076.5z M3634.1,3075.4h0.8c0.3,0,0.5-0.1,0.6-0.3s0.2-0.4,0.2-0.7
						c0-0.7-0.3-1-0.8-1h-0.8V3075.4z" class="fill-FFFFFF"></path>
				
			
			
				
					<path d="M3590.6,3091.5h0.8v0.6h-0.8v1.3h-0.8v-1.3h-2.6v-0.4l2.5-3.9h0.8v3.7H3590.6z M3588.1,3091.5h1.7v-2.7l0,0l-0.1,0.2
						L3588.1,3091.5z"></path>
					<path d="M3594.4,3093.4v-3.7h-0.7v-0.6h0.7v-0.5c0-0.5,0.1-0.8,0.4-1c0.2-0.2,0.6-0.4,1-0.4c0.1,0,0.2,0,0.3,0s0.2,0,0.3,0.1
						l-0.1,0.6c0,0-0.1,0-0.2,0s-0.1,0-0.2,0c-0.2,0-0.4,0.1-0.5,0.2c-0.1,0.1-0.2,0.3-0.2,0.6v0.5h0.9v0.6h-0.9v3.7h-0.8V3093.4z"></path>
					<path d="M3597.7,3093.4h-0.8v-6.1h0.8V3093.4z"></path>
					<path d="M3598.7,3091.2c0-0.6,0.2-1.1,0.5-1.5s0.8-0.6,1.4-0.6c0.6,0,1,0.2,1.4,0.6c0.3,0.4,0.5,0.9,0.5,1.5v0.1
						c0,0.6-0.2,1.1-0.5,1.5s-0.8,0.6-1.4,0.6c-0.6,0-1-0.2-1.4-0.6S3598.7,3091.9,3598.7,3091.2L3598.7,3091.2z M3599.5,3091.3
						c0,0.4,0.1,0.8,0.3,1.1s0.5,0.4,0.8,0.4c0.4,0,0.6-0.1,0.8-0.4c0.2-0.3,0.3-0.7,0.3-1.1v-0.1c0-0.4-0.1-0.8-0.3-1.1
						s-0.5-0.4-0.8-0.4c-0.4,0-0.6,0.1-0.8,0.4C3599.6,3090.4,3599.5,3090.8,3599.5,3091.3L3599.5,3091.3z"></path>
					<path d="M3603.2,3091.2c0-0.6,0.2-1.1,0.5-1.5s0.8-0.6,1.4-0.6c0.6,0,1,0.2,1.4,0.6c0.3,0.4,0.5,0.9,0.5,1.5v0.1
						c0,0.6-0.2,1.1-0.5,1.5s-0.8,0.6-1.4,0.6c-0.6,0-1-0.2-1.4-0.6S3603.2,3091.9,3603.2,3091.2L3603.2,3091.2z M3604,3091.3
						c0,0.4,0.1,0.8,0.3,1.1s0.5,0.4,0.8,0.4c0.4,0,0.6-0.1,0.8-0.4c0.2-0.3,0.3-0.7,0.3-1.1v-0.1c0-0.4-0.1-0.8-0.3-1.1
						s-0.5-0.4-0.8-0.4c-0.4,0-0.6,0.1-0.8,0.4C3604.1,3090.4,3604,3090.8,3604,3091.3L3604,3091.3z"></path>
					<path d="M3610,3089.8h-0.4c-0.2,0-0.4,0-0.5,0.1s-0.2,0.2-0.3,0.4v3h-0.8v-4.2h0.7l0.1,0.6c0.1-0.2,0.3-0.4,0.4-0.5
						c0.2-0.1,0.4-0.2,0.6-0.2c0.1,0,0.1,0,0.2,0c0.1,0,0.1,0,0.1,0L3610,3089.8z"></path>
				
			
		</g>
		<g id="label_ru_nohover">
			<rect x="3607.7" y="3067.5" width="33.8" height="16"></rect>
			
				
					<path d="M3616.5,3072.2v6.8h-1.4v-5.6h-1.3l-0.1,2.4c0,0.8-0.1,1.4-0.3,1.9c-0.1,0.5-0.3,0.8-0.6,1
						s-0.6,0.3-1.1,0.3h-0.3v-1.1h0.2c0.3,0,0.5-0.2,0.6-0.6c0.1-0.3,0.2-0.9,0.2-1.8l0.1-3.3L3616.5,3072.2L3616.5,3072.2z" class="fill-FFFFFF"></path>
					<path d="M3621.9,3072.2h1.4v6.8h-1.4v-4.5l-2,4.5h-1.4v-6.8h1.4v4.5L3621.9,3072.2z" class="fill-FFFFFF"></path>
					<path d="M3628.9,3072.8c0.7,0,1.3,0.3,1.7,0.8s0.7,1.2,0.7,2s-0.2,1.5-0.7,2c-0.4,0.5-1,0.8-1.7,0.8v0.9h-1.3
						v-0.9c-0.5,0-0.9-0.1-1.3-0.3s-0.6-0.6-0.8-1s-0.3-0.9-0.3-1.4c0-0.8,0.2-1.5,0.7-2c0.4-0.5,1-0.8,1.8-0.8v-0.9h1.3v0.8H3628.9
						z M3627.5,3074c-0.3,0-0.6,0.1-0.8,0.4c-0.2,0.3-0.3,0.7-0.3,1.2s0.1,0.9,0.3,1.2s0.5,0.4,0.8,0.4h0.1L3627.5,3074L3627.5,3074
						z M3628.9,3074v3.2h0.1c0.3,0,0.6-0.1,0.8-0.4c0.2-0.3,0.3-0.7,0.3-1.2s-0.1-0.9-0.3-1.2
						C3629.5,3074.1,3629.3,3074,3628.9,3074L3628.9,3074z" class="fill-FFFFFF"></path>
					<path d="M3637.5,3073.3h-1.7v5.6h-1.4v-5.6h-1.6v-1.1h4.7V3073.3z" class="fill-FFFFFF"></path>
				
			
			
				
					<path d="M3611.2,3091.5h0.8v0.6h-0.8v1.3h-0.8v-1.3h-2.6v-0.4l2.5-3.9h0.8v3.7H3611.2z M3608.7,3091.5h1.7v-2.7l0,0l-0.1,0.2
						L3608.7,3091.5z"></path>
					<path d="M3616.2,3089.7c-0.2,0-0.5,0.1-0.6,0.2c-0.2,0.2-0.3,0.4-0.3,0.6h-0.7l0,0c0-0.4,0.1-0.7,0.5-1s0.7-0.4,1.1-0.4
						c0.6,0,1,0.2,1.4,0.6c0.3,0.4,0.5,0.9,0.5,1.5v0.2c0,0.6-0.2,1.1-0.5,1.5s-0.8,0.6-1.4,0.6c-0.5,0-0.9-0.1-1.2-0.4
						c-0.3-0.3-0.5-0.6-0.4-1.1l0,0h0.7c0,0.3,0.1,0.5,0.3,0.7s0.4,0.3,0.7,0.3s0.6-0.1,0.8-0.4c0.2-0.3,0.3-0.6,0.3-0.9l0,0h-1.5
						v-0.6h1.5l0,0c0-0.3-0.1-0.6-0.3-0.9C3616.8,3089.8,3616.5,3089.7,3616.2,3089.7z"></path>
					<path d="M3622.2,3089.8h-1.4v3.6h-0.8v-3.6h-1.4v-0.6h3.5v0.6H3622.2z"></path>
					<path d="M3625.6,3093.4c0-0.1,0-0.2-0.1-0.3c0-0.1,0-0.2,0-0.3c-0.1,0.2-0.3,0.4-0.6,0.5s-0.5,0.2-0.7,0.2
						c-0.4,0-0.8-0.1-1-0.3s-0.3-0.5-0.3-0.9s0.2-0.7,0.5-0.9s0.8-0.3,1.3-0.3h0.8v-0.4c0-0.2-0.1-0.4-0.2-0.6
						c-0.2-0.1-0.4-0.2-0.6-0.2c-0.2,0-0.4,0.1-0.6,0.2c-0.2,0.1-0.2,0.3-0.2,0.5h-0.7l0,0c0-0.3,0.1-0.6,0.4-0.8
						c0.3-0.3,0.7-0.4,1.2-0.4s0.9,0.1,1.2,0.4c0.3,0.2,0.4,0.6,0.4,1.1v2c0,0.2,0,0.3,0,0.4s0,0.3,0.1,0.4h-0.9V3093.4z
						 M3624.3,3092.8c0.3,0,0.5-0.1,0.8-0.2c0.2-0.1,0.4-0.3,0.4-0.5v-0.7h-0.9c-0.3,0-0.6,0.1-0.7,0.2c-0.2,0.2-0.3,0.3-0.3,0.5
						s0.1,0.3,0.2,0.4C3623.9,3092.8,3624.1,3092.8,3624.3,3092.8z"></path>
					<path d="M3630.8,3091.5h-0.5v1.8h-0.8v-1.8h-0.5l-1.1,1.8h-1l1.5-2.2l-1.4-2h0.9l1,1.7h0.5v-1.7h0.8v1.7h0.5l1-1.7h0.9l-1.4,2
						l1.5,2.2h-1L3630.8,3091.5z"></path>
				
			
		</g>
		
			
				<polygon points="3650.5,3093.7 3688.5,3093.7 3688.5,3133.7 3650.5,3133.7 3650.5,3122.7 3652.5,3122.7 3652.5,3131.7 
					3686.5,3131.7 3686.5,3095.7 3652.5,3095.7 3652.5,3106.7 3650.5,3106.7 				"></polygon>
			
			<rect x="3658.5" y="3115.7" width="10" height="10"></rect>
			<g id="XMLID">
				
					<polygon points="3663,3123.2 3663,3125.7 3664,3125.7 3664,3123.2 3664.5,3123.7 3665.5,3123.7 3663.5,3121.7 
						3661.5,3123.7 3662.5,3123.7 					" class="fill-FFFFFF"></polygon>
				
			</g>
			
				<polygon points="3684.5,3128.7 3654.5,3128.7 3654.5,3129.7 3684.5,3129.7 				"></polygon>
			
			
				<polygon points="3681.5,3126.7 3657.5,3126.7 3657.5,3127.3 3681.5,3127.3 				"></polygon>
			
			
				<polygon points="3682.1,3100.1 3656.9,3100.1 3656.9,3100.7 3682.1,3100.7 				"></polygon>
			
			
				<polygon points="3682.1,3100.7 3681.5,3100.7 3681.5,3127.3 3682.1,3127.3 				"></polygon>
			
			
				<polygon points="3657.5,3100.7 3656.9,3100.7 3656.9,3127.3 3657.5,3127.3 				"></polygon>
			
			
				<polygon points="3684.5,3097.7 3654.5,3097.7 3654.5,3098.7 3684.5,3098.7 				"></polygon>
			
			
				<polygon points="3655.5,3097.7 3654.5,3097.7 3654.5,3128.7 3655.5,3128.7 				"></polygon>
			
			
				<polygon points="3684.5,3097.7 3683.5,3097.7 3683.5,3128.7 3684.5,3128.7 				"></polygon>
			
			
				<polygon points="3650.5,3055.7 3688.5,3055.7 3688.5,3095.7 3650.5,3095.7 3650.5,3084.7 3652.5,3084.7 3652.5,3093.7 
					3686.5,3093.7 3686.5,3057.7 3652.5,3057.7 3652.5,3067.7 3650.5,3067.7 				"></polygon>
			
			<rect x="3670.5" y="3063.7" width="10" height="10"></rect>
			<g id="XMLID">
				
					<polygon points="3676,3066.2 3676,3063.7 3675,3063.7 3675,3066.2 3674.5,3065.7 3673.5,3065.7 3675.5,3067.7 
						3677.5,3065.7 3676.5,3065.7 					" class="fill-FFFFFF"></polygon>
				
			</g>
			
				<path d="M3682.1,3062.1h-0.6h-24h-0.6v26.6v0.6h25.2v-0.6L3682.1,3062.1L3682.1,3062.1z M3657.5,3088.7v-26h24v26H3657.5
					L3657.5,3088.7z"></path>
			
			
				<path d="M3684.5,3059.7h-30v1v30v1h1h28h1v-1v-30V3059.7L3684.5,3059.7z M3655.5,3090.7v-30h28v30H3655.5L3655.5,3090.7z"></path>
			
			<rect x="3647.471" y="3083.156" width="5" height="2"></rect>
			<rect x="3647.453" y="3067.174" width="5" height="2"></rect>
			<rect x="3647.459" y="3121.132" width="5" height="2"></rect>
			<rect x="3647.447" y="3105.145" width="5" height="2"></rect>
		
		<g id="hover" display="none">
			<rect x="3670.5" y="3063.7" display="inline" width="10" height="10" class="fill-FFAC01"></rect>
			<rect x="3658.5" y="3115.7" display="inline" width="10" height="10" class="fill-FFAC01"></rect>
			<polygon display="inline" points="3676,3066.2 3676,3063.7 3675,3063.7 3675,3066.2 3674.5,3065.7 3673.5,3065.7 
				3675.5,3067.7 3677.5,3065.7 3676.5,3065.7 			" class="fill-FFFFFF"></polygon>
			<polygon display="inline" points="3663,3123.2 3663,3125.7 3664,3125.7 3664,3123.2 3664.5,3123.7 3665.5,3123.7 
				3663.5,3121.7 3661.5,3123.7 3662.5,3123.7 			" class="fill-FFFFFF"></polygon>
		</g>
	</g><g id="__AERO5-1-stairway001">
		<g id="area">
			<polygon fill-opacity="0" points="3688.8,3015.4 3688.8,3056.7 3802.1,3056.7 3802.1,3021.4 3705.5,3021.4 
				3705.5,3017.1 3726,3015.7 3748.8,3005.9 3748.8,2989.9 3690,2989.9 3688.8,3013.2 			" class="fill-FFFFFF"></polygon>
		</g>
		<g id="tooltip">
			<circle fill="none" cx="3718.1" cy="2978" r="1"></circle>
		</g>
		<g id="label_zh_nohover">
			<rect x="3690" y="2989.9" width="23.3" height="16"></rect>
			
				
					<path d="M3695.3,2996.8c0.2,0.3,0.8,1.2,1,1.4l-0.3,0.4c-0.1-0.3-0.4-0.8-0.7-1.2v3.9h-0.5v-3.9
						c-0.3,0.9-0.7,1.8-1,2.4c-0.1-0.1-0.2-0.3-0.3-0.5c0.5-0.7,1-2,1.3-3.1h-1.1v-0.5h1.2v-1.8h0.7c0,0-0.1,0.1-0.2,0.1v1.6h1v0.5
						h-1v0.7H3695.3z M3698.1,2997.7l0.6,0.1c0,0.1-0.1,0.1-0.2,0.1c-0.1,0.2-0.2,0.3-0.3,0.5h2.7v0.5h-0.7
						c-0.2,0.6-0.5,1.1-0.9,1.4c0.6,0.2,1.1,0.5,1.5,0.7c-0.3,0.3-0.3,0.3-0.4,0.4c-0.4-0.2-1-0.5-1.6-0.8c-0.6,0.4-1.4,0.6-2.6,0.8
						c0-0.2-0.1-0.4-0.2-0.5c0.9-0.1,1.6-0.3,2.2-0.5c-0.3-0.1-0.7-0.3-1-0.4l-0.1,0.2l-0.5-0.2c0.2-0.3,0.4-0.8,0.7-1.2h-1.1v-0.5
						h1.4L3698.1,2997.7z M3698.4,2997.7v-1.4c-0.5,0.6-1.1,1.2-1.8,1.5c-0.1-0.1-0.2-0.3-0.3-0.4c0.6-0.3,1.3-0.8,1.8-1.4h-1.6
						v-0.5h1.9v-1.6h0.7c0,0.1,0,0.1-0.2,0.1v1.5h2v0.5h-1.7c0.5,0.5,1.2,1,1.8,1.3c-0.1,0.1-0.3,0.3-0.4,0.4
						c-0.6-0.3-1.3-0.8-1.8-1.4v1.4L3698.4,2997.7L3698.4,2997.7z M3697.2,2994.2c0.3,0.3,0.5,0.8,0.6,1.1l-0.4,0.2
						c-0.1-0.3-0.4-0.8-0.6-1.1L3697.2,2994.2z M3698,2998.9c-0.1,0.3-0.3,0.5-0.4,0.8c0.4,0.1,0.9,0.3,1.3,0.5
						c0.4-0.3,0.7-0.7,0.8-1.2h-1.7V2998.9z M3700.7,2994.4c0,0.1-0.1,0.1-0.2,0.1c-0.2,0.3-0.5,0.8-0.7,1.1l-0.4-0.2
						c0.2-0.3,0.5-0.8,0.7-1.2L3700.7,2994.4z" class="fill-FFFFFF"></path>
					<path d="M3704.3,2998.4c-0.1-0.2-0.3-0.6-0.5-1v3.9h-0.7v-3.5c-0.2,0.8-0.6,1.5-0.9,2c-0.1-0.2-0.2-0.5-0.4-0.7
						c0.5-0.6,1-1.8,1.2-2.9h-1v-0.7h1.1v-1.5h0.7v1.5h0.8v0.7h-0.8v0.3c0.2,0.3,0.8,1.2,0.9,1.4L3704.3,2998.4z M3709.2,2998.1
						c0,0,0,0.2,0,0.3c-0.1,1.3-0.1,1.8-0.3,2c-0.1,0.1-0.2,0.2-0.4,0.2s-0.4,0-0.7,0c0-0.2-0.1-0.5-0.2-0.7c0.2,0,0.4,0,0.5,0
						s0.2,0,0.2-0.1c0.1-0.1,0.1-0.4,0.2-1.2h-1.2v2.6h-0.7v-1.9c-0.5,0.7-1.1,1.2-1.8,1.6c-0.1-0.2-0.3-0.4-0.5-0.6
						c0.7-0.3,1.5-1,2-1.7h-1.4c0.1-0.5,0.2-1.4,0.2-2h1.5v-0.9h-1.8v-0.6h1c-0.1-0.3-0.3-0.7-0.5-1l0.6-0.2
						c0.2,0.4,0.5,0.8,0.6,1.1l-0.3,0.1h1.2c0.2-0.4,0.4-0.9,0.6-1.3l0.7,0.2c-0.2,0.4-0.4,0.8-0.6,1.1h0.9v2.1h-1.7v0.8h1.9V2998.1
						z M3705.6,2997.4c0,0.3-0.1,0.5-0.1,0.8h1v-0.8H3705.6z M3707.2,2996.8h1v-0.9h-1V2996.8z" class="fill-FFFFFF"></path>
				
			
			
				
					<path d="M3693.5,3013.9h0.8v0.6h-0.8v1.3h-0.8v-1.3h-2.6v-0.4l2.5-3.9h0.8v3.7H3693.5z M3691,3013.9h1.7v-2.7l0,0l-0.1,0.2
						L3691,3013.9z"></path>
					<path d="M3699.1,3012.7l-0.4,0.4c-0.1-0.1-0.1-0.2-0.3-0.4v3.5h-0.6v-3c-0.2,0.5-0.4,0.9-0.6,1.2l-0.3-0.6
						c0.4-0.5,0.7-1.1,0.9-1.9h-0.8v-0.6h0.8v-1.3h0.6v1.3h0.6v0.6h-0.6C3698.7,3012.2,3698.9,3012.4,3699.1,3012.7z M3703,3014.2
						h-1c-0.2,0.4-0.3,0.6-0.5,0.9c0.5,0.2,0.9,0.4,1.4,0.7l-0.4,0.5c-0.4-0.3-0.9-0.5-1.5-0.7c-0.6,0.4-1.3,0.6-2.1,0.7l-0.2-0.5
						c0.6,0,1.1-0.2,1.6-0.4c-0.2-0.1-0.6-0.2-1.1-0.4c0.2-0.2,0.3-0.4,0.5-0.7h-0.8v-0.5h1.1c0.1-0.1,0.2-0.3,0.3-0.6l0.6,0.2
						c-0.1,0.2-0.1,0.3-0.2,0.4h0.9c0.1-0.1,0.1-0.3,0.1-0.4l0.6,0.2c0,0.1,0,0.2-0.1,0.2h0.8L3703,3014.2L3703,3014.2z
						 M3700.5,3012.3c-0.4,0.5-0.7,0.9-1,1.1l-0.4-0.4c0.3-0.3,0.7-0.7,0.9-1.1L3700.5,3012.3z M3702.9,3011.8h-1.6v1.3h-0.6v-1.3
						h-1.6v-0.6h1.6v-1.1h0.6v1.1h1.6V3011.8z M3700.5,3010.9l-0.5,0.3c-0.2-0.3-0.4-0.5-0.6-0.7l0.5-0.3
						C3700.1,3010.4,3700.3,3010.6,3700.5,3010.9z M3701.4,3014.2h-0.9c-0.1,0.2-0.2,0.3-0.2,0.4c0.3,0.1,0.5,0.2,0.7,0.2
						C3701.2,3014.6,3701.3,3014.4,3701.4,3014.2z M3703,3013l-0.4,0.4c-0.3-0.3-0.7-0.7-1.1-1.1l0.4-0.4
						C3702.3,3012.3,3702.7,3012.6,3703,3013z M3702.7,3010.4c-0.1,0.2-0.3,0.4-0.6,0.7l-0.5-0.3c0.2-0.2,0.4-0.4,0.6-0.6
						L3702.7,3010.4z"></path>
					<path d="M3709.7,3011.8h-4.6v1.3c0,1.3-0.2,2.3-0.6,3.1l-0.5-0.4c0.3-0.7,0.5-1.6,0.5-2.7v-3h5.2L3709.7,3011.8L3709.7,3011.8z
						 M3709.1,3011.3v-0.6h-4v0.6H3709.1z M3710,3014.1h-3.1l0.3,0.2c-0.3,0.5-0.6,0.9-1,1.3c0.9,0,1.7-0.1,2.5-0.3
						c-0.1-0.2-0.4-0.4-0.7-0.6l0.5-0.3c0.6,0.6,1.1,1.1,1.4,1.6l-0.5,0.3c-0.1-0.1-0.2-0.3-0.3-0.4c-1.6,0.3-2.8,0.4-3.7,0.4
						l-0.1-0.5c0.5-0.3,0.9-0.8,1.3-1.5h-1.4v-0.5h4.8V3014.1z M3709.7,3012.9h-4.2v-0.5h4.2V3012.9z"></path>
				
			
		</g>
		<g id="label_en_nohover">
			<rect x="3690" y="2989.9" width="54.7" height="16"></rect>
			
				
					<path d="M3696.9,2999.7c0-0.3-0.1-0.5-0.2-0.6s-0.4-0.3-0.8-0.4c-0.7-0.3-1.2-0.6-1.5-0.9s-0.4-0.8-0.4-1.2
						c0-0.6,0.2-1,0.6-1.4c0.4-0.3,0.9-0.5,1.5-0.5c0.4,0,0.8,0.1,1.1,0.3s0.6,0.4,0.7,0.7s0.3,0.7,0.3,1.1h-1.4
						c0-0.3-0.1-0.6-0.2-0.7c-0.1-0.2-0.3-0.2-0.6-0.2c-0.2,0-0.4,0.1-0.6,0.2s-0.2,0.3-0.2,0.6c0,0.2,0.1,0.4,0.2,0.5
						c0.1,0.2,0.4,0.3,0.8,0.5c0.7,0.2,1.1,0.5,1.4,0.9c0.3,0.3,0.4,0.8,0.4,1.3c0,0.6-0.2,1-0.6,1.4s-0.9,0.5-1.5,0.5
						c-0.4,0-0.8-0.1-1.2-0.3s-0.6-0.4-0.8-0.8c-0.2-0.3-0.3-0.7-0.3-1.2h1.4c0,0.4,0.1,0.7,0.2,0.8c0.2,0.2,0.4,0.3,0.7,0.3
						C3696.7,3000.4,3696.9,3000.2,3696.9,2999.7z" class="fill-FFFFFF"></path>
					<path d="M3704.5,2995.8h-1.7v5.6h-1.4v-5.6h-1.6v-1.1h4.7V2995.8z" class="fill-FFFFFF"></path>
					<path d="M3708.9,3000h-1.9l-0.4,1.4h-1.4l2.1-6.8h1.2l2.1,6.8h-1.5L3708.9,3000z M3707.4,2998.9h1.3l-0.6-2.4
						L3707.4,2998.9z" class="fill-FFFFFF"></path>
					<path d="M3713.8,3001.4h-1.4v-6.8h1.4V3001.4z" class="fill-FFFFFF"></path>
					<path d="M3717.9,2999h-0.7v2.5h-1.4v-6.8h2.2c0.7,0,1.2,0.2,1.6,0.5c0.4,0.4,0.6,0.9,0.6,1.5
						c0,0.9-0.3,1.5-1,1.9l1.2,2.8v0.1h-1.5L3717.9,2999z M3717.2,2997.8h0.8c0.3,0,0.5-0.1,0.6-0.3s0.2-0.4,0.2-0.7
						c0-0.7-0.3-1-0.8-1h-0.8V2997.8z" class="fill-FFFFFF"></path>
					<path d="M3726.5,2998.9l0.6-4.2h1.3l-1.2,6.8h-1.4l-0.8-4l-0.8,4h-1.4l-1.2-6.8h1.4l0.6,4.2l0.8-4.2h1.1
						L3726.5,2998.9z" class="fill-FFFFFF"></path>
					<path d="M3733.2,3000h-1.9l-0.4,1.4h-1.4l2.1-6.8h1.2l2.1,6.8h-1.5L3733.2,3000z M3731.6,2998.9h1.3l-0.6-2.4
						L3731.6,2998.9z" class="fill-FFFFFF"></path>
					<path d="M3737.9,2997.7l1-3h1.5l-1.8,4.3v2.4h-1.4v-2.4l-1.8-4.3h1.5L3737.9,2997.7z" class="fill-FFFFFF"></path>
				
			
			
				
					<path d="M3693.5,3013.9h0.8v0.6h-0.8v1.3h-0.8v-1.3h-2.6v-0.4l2.5-3.9h0.8v3.7H3693.5z M3691,3013.9h1.7v-2.7l0,0l-0.1,0.2
						L3691,3013.9z"></path>
					<path d="M3697.3,3015.8v-3.7h-0.7v-0.6h0.7v-0.5c0-0.5,0.1-0.8,0.4-1s0.6-0.4,1-0.4c0.1,0,0.2,0,0.3,0s0.2,0,0.3,0.1l-0.1,0.6
						c0,0-0.1,0-0.2,0s-0.1,0-0.2,0c-0.2,0-0.4,0.1-0.5,0.2c-0.1,0.1-0.2,0.3-0.2,0.6v0.5h0.9v0.6h-0.9v3.7h-0.8V3015.8z"></path>
					<path d="M3700.6,3015.8h-0.8v-6.1h0.8V3015.8z"></path>
					<path d="M3701.6,3013.7c0-0.6,0.2-1.1,0.5-1.5s0.8-0.6,1.4-0.6c0.6,0,1,0.2,1.4,0.6c0.3,0.4,0.5,0.9,0.5,1.5v0.1
						c0,0.6-0.2,1.1-0.5,1.5s-0.8,0.6-1.4,0.6s-1-0.2-1.4-0.6S3701.6,3014.4,3701.6,3013.7L3701.6,3013.7z M3702.4,3013.8
						c0,0.4,0.1,0.8,0.3,1.1s0.5,0.4,0.8,0.4c0.4,0,0.6-0.1,0.8-0.4s0.3-0.7,0.3-1.1v-0.1c0-0.4-0.1-0.8-0.3-1.1s-0.5-0.4-0.8-0.4
						c-0.4,0-0.6,0.1-0.8,0.4S3702.4,3013.2,3702.4,3013.8L3702.4,3013.8z"></path>
					<path d="M3706.2,3013.7c0-0.6,0.2-1.1,0.5-1.5s0.8-0.6,1.4-0.6c0.6,0,1,0.2,1.4,0.6c0.3,0.4,0.5,0.9,0.5,1.5v0.1
						c0,0.6-0.2,1.1-0.5,1.5s-0.8,0.6-1.4,0.6s-1-0.2-1.4-0.6S3706.2,3014.4,3706.2,3013.7L3706.2,3013.7z M3706.9,3013.8
						c0,0.4,0.1,0.8,0.3,1.1s0.5,0.4,0.8,0.4c0.4,0,0.6-0.1,0.8-0.4s0.3-0.7,0.3-1.1v-0.1c0-0.4-0.1-0.8-0.3-1.1s-0.5-0.4-0.8-0.4
						c-0.4,0-0.6,0.1-0.8,0.4S3706.9,3013.2,3706.9,3013.8L3706.9,3013.8z"></path>
					<path d="M3712.9,3012.3h-0.4c-0.2,0-0.4,0-0.5,0.1s-0.2,0.2-0.3,0.4v3h-0.8v-4.2h0.7l0.1,0.6c0.1-0.2,0.3-0.4,0.4-0.5
						c0.2-0.1,0.4-0.2,0.6-0.2c0.1,0,0.1,0,0.2,0c0.1,0,0.1,0,0.1,0L3712.9,3012.3z"></path>
				
			
		</g>
		<g id="label_ru_nohover">
			<rect x="3690" y="2989.9" width="58.9" height="16"></rect>
			
				
					<path d="M3698.8,2994.7v6.8h-1.4v-5.6h-1.3l-0.1,2.4c0,0.8-0.1,1.4-0.3,1.9c-0.1,0.5-0.3,0.8-0.6,1
						s-0.6,0.3-1.1,0.3h-0.3v-1.1h0.2c0.3,0,0.5-0.2,0.6-0.6c0.1-0.3,0.2-0.9,0.2-1.8l0.1-3.3L3698.8,2994.7L3698.8,2994.7z" class="fill-FFFFFF"></path>
					<path d="M3704.4,2998.5h-2.1v1.8h2.5v1.1h-3.9v-6.8h3.9v1.1h-2.5v1.6h2.1V2998.5z" class="fill-FFFFFF"></path>
					<path d="M3711.1,2999.2c0,0.8-0.2,1.4-0.6,1.7s-1,0.6-1.7,0.6c-0.8,0-1.3-0.3-1.8-0.8c-0.4-0.5-0.6-1.2-0.6-2.1
						v-1.1c0-0.9,0.2-1.6,0.6-2.1c0.4-0.5,1-0.8,1.8-0.8c0.7,0,1.3,0.2,1.7,0.6s0.6,1,0.7,1.8h-1.4c0-0.5-0.1-0.8-0.2-1
						c-0.1-0.2-0.4-0.3-0.7-0.3c-0.4,0-0.6,0.1-0.8,0.4s-0.2,0.7-0.2,1.3v1.3c0,0.7,0.1,1.1,0.2,1.4c0.2,0.3,0.4,0.4,0.8,0.4
						c0.4,0,0.6-0.1,0.7-0.3s0.2-0.5,0.2-0.9h1.3V2999.2z" class="fill-FFFFFF"></path>
					<path d="M3717.1,2995.8h-1.7v5.6h-1.4v-5.6h-1.6v-1.1h4.7V2995.8z" class="fill-FFFFFF"></path>
					<path d="M3723.6,3001.4h-1.4v-2.9h-2v2.9h-1.4v-6.8h1.4v2.7h2v-2.7h1.4V3001.4z" class="fill-FFFFFF"></path>
					<path d="M3728.9,2994.7h1.4v6.8h-1.4v-4.5l-2,4.5h-1.4v-6.8h1.4v4.5L3728.9,2994.7z" class="fill-FFFFFF"></path>
					<path d="M3732.3,2994.7h1.4v5.6h2v-5.6h1.4v5.6h0.8l-0.1,2.8h-1.3v-1.6h-4.2L3732.3,2994.7L3732.3,2994.7z" class="fill-FFFFFF"></path>
					<path d="M3742.9,3000h-1.9l-0.4,1.4h-1.4l2.1-6.8h1.2l2.1,6.8h-1.5L3742.9,3000z M3741.4,2998.9h1.3l-0.6-2.4
						L3741.4,2998.9z" class="fill-FFFFFF"></path>
				
			
			
				
					<path d="M3693.5,3013.9h0.8v0.6h-0.8v1.3h-0.8v-1.3h-2.6v-0.4l2.5-3.9h0.8v3.7H3693.5z M3691,3013.9h1.7v-2.7l0,0l-0.1,0.2
						L3691,3013.9z"></path>
					<path d="M3698.5,3012.1c-0.2,0-0.5,0.1-0.6,0.2c-0.2,0.2-0.3,0.4-0.3,0.6h-0.7l0,0c0-0.4,0.1-0.7,0.5-1s0.7-0.4,1.1-0.4
						c0.6,0,1,0.2,1.4,0.6c0.3,0.4,0.5,0.9,0.5,1.5v0.2c0,0.6-0.2,1.1-0.5,1.5s-0.8,0.6-1.4,0.6c-0.5,0-0.9-0.1-1.2-0.4
						c-0.3-0.3-0.5-0.6-0.4-1.1l0,0h0.7c0,0.3,0.1,0.5,0.3,0.7s0.4,0.3,0.7,0.3s0.6-0.1,0.8-0.4c0.2-0.3,0.3-0.6,0.3-0.9l0,0h-1.5
						v-0.6h1.5l0,0c0-0.3-0.1-0.6-0.3-0.9S3698.8,3012.1,3698.5,3012.1z"></path>
					<path d="M3704.5,3012.2h-1.4v3.6h-0.8v-3.6h-1.4v-0.6h3.5v0.6H3704.5z"></path>
					<path d="M3707.9,3015.8c0-0.1,0-0.2-0.1-0.3s0-0.2,0-0.3c-0.1,0.2-0.3,0.4-0.6,0.5s-0.5,0.2-0.7,0.2c-0.4,0-0.8-0.1-1-0.3
						s-0.3-0.5-0.3-0.9s0.2-0.7,0.5-0.9s0.8-0.3,1.3-0.3h0.8v-0.4c0-0.2-0.1-0.4-0.2-0.6s-0.4-0.2-0.6-0.2c-0.2,0-0.4,0.1-0.6,0.2
						c-0.2,0.1-0.2,0.3-0.2,0.5h-0.7l0,0c0-0.3,0.1-0.6,0.4-0.8c0.3-0.3,0.7-0.4,1.2-0.4s0.9,0.1,1.2,0.4c0.3,0.2,0.4,0.6,0.4,1.1v2
						c0,0.2,0,0.3,0,0.4s0,0.3,0.1,0.4h-0.9V3015.8z M3706.6,3015.3c0.3,0,0.5-0.1,0.8-0.2s0.4-0.3,0.4-0.5v-0.7h-0.9
						c-0.3,0-0.6,0.1-0.7,0.2c-0.2,0.2-0.3,0.3-0.3,0.5s0.1,0.3,0.2,0.4C3706.2,3015.2,3706.4,3015.3,3706.6,3015.3z"></path>
					<path d="M3713,3014h-0.5v1.8h-0.8v-1.8h-0.5l-1.1,1.8h-1l1.5-2.2l-1.4-2h0.9l1,1.7h0.5v-1.7h0.8v1.7h0.5l1-1.7h0.9l-1.4,2
						l1.5,2.2h-1L3713,3014z"></path>
				
			
		</g>
		
			
				<rect x="3690" y="3024.4" width="14" height="14" class="fill-C0C7CC"></rect>
				<g id="XMLID">
					<rect x="3787" y="3024.4" width="14" height="14"></rect>
					<polygon points="3797.4,3032.1 3801,3032.1 3801,3030.7 3797.4,3030.7 3798.1,3030 3798.1,3028.6 
						3795.4,3031.4 3798.1,3034.2 3798.1,3032.8 					" class="fill-FFFFFF"></polygon>
				</g>
				
					
						<rect x="3705" y="3024.4" width="1" height="14"></rect>
					
					
						<rect x="3710" y="3024.4" width="1" height="14"></rect>
					
					
						<rect x="3715" y="3024.4" width="1" height="14"></rect>
					
					
						<rect x="3720" y="3024.4" width="1" height="14"></rect>
					
					
						<rect x="3725" y="3024.4" width="1" height="14"></rect>
					
					
						<rect x="3730" y="3024.4" width="1" height="14"></rect>
					
					
						<rect x="3735" y="3024.4" width="1" height="14"></rect>
					
					
						<rect x="3740" y="3024.4" width="1" height="14"></rect>
					
					
						<rect x="3745" y="3024.4" width="1" height="14"></rect>
					
					
						<rect x="3750" y="3024.4" width="1" height="14"></rect>
					
					
						<rect x="3755" y="3024.4" width="1" height="14"></rect>
					
					
						<rect x="3760" y="3024.4" width="1" height="14"></rect>
					
					
						<rect x="3765" y="3024.4" width="1" height="14"></rect>
					
					
						<rect x="3770" y="3024.4" width="1" height="14"></rect>
					
					
						<rect x="3775" y="3024.4" width="1" height="14"></rect>
					
					
						<rect x="3780" y="3024.4" width="1" height="14"></rect>
					
					
						<rect x="3785" y="3024.4" width="1" height="14"></rect>
					
				
				
					<rect x="3690" y="3021.4" width="111" height="2"></rect>
				
				<rect x="3736.948" y="3023.973" width="12.5" height="15" class="fill-FFFFFF"></rect>
			
			
				<rect x="3690" y="3039.7" width="14" height="14" class="fill-C0C7CC"></rect>
				<g id="XMLID">
					<rect x="3787" y="3039.7" width="14" height="14"></rect>
					<polygon points="3797.4,3047.4 3801,3047.4 3801,3046 3797.4,3046 3798.1,3045.3 3798.1,3043.9 3795.4,3046.7 
						3798.1,3049.5 3798.1,3048.1 					" class="fill-FFFFFF"></polygon>
				</g>
				
					
						<rect x="3785" y="3039.7" width="1" height="14"></rect>
					
					
						<rect x="3780" y="3039.7" width="1" height="14"></rect>
					
					
						<rect x="3775" y="3039.7" width="1" height="14"></rect>
					
					
						<rect x="3770" y="3039.7" width="1" height="14"></rect>
					
					
						<rect x="3765" y="3039.7" width="1" height="14"></rect>
					
					
						<rect x="3760" y="3039.7" width="1" height="14"></rect>
					
					
						<rect x="3755" y="3039.7" width="1" height="14"></rect>
					
					
						<rect x="3750" y="3039.7" width="1" height="14"></rect>
					
					
						<rect x="3745" y="3039.7" width="1" height="14"></rect>
					
					
						<rect x="3740" y="3039.7" width="1" height="14"></rect>
					
					
						<rect x="3735" y="3039.7" width="1" height="14"></rect>
					
					
						<rect x="3730" y="3039.7" width="1" height="14"></rect>
					
					
						<rect x="3725" y="3039.7" width="1" height="14"></rect>
					
					
						<rect x="3720" y="3039.7" width="1" height="14"></rect>
					
					
						<rect x="3715" y="3039.7" width="1" height="14"></rect>
					
					
						<rect x="3710" y="3039.7" width="1" height="14"></rect>
					
					
						<rect x="3705" y="3039.7" width="1" height="14"></rect>
					
				
				
					<rect x="3690" y="3054.7" width="111" height="2"></rect>
				
				<rect x="3737.002" y="3039.181" width="12.5" height="15" class="fill-FFFFFF"></rect>
			
		
		<g id="hover" display="none">
			<rect x="3787" y="3039.7" display="inline" width="14" height="14" class="fill-FFAC01"></rect>
			<rect x="3787" y="3024.4" display="inline" width="14" height="14" class="fill-FFAC01"></rect>
			<polygon display="inline" points="3797.4,3047.4 3801,3047.4 3801,3046 3797.4,3046 3798.1,3045.3 3798.1,3043.9 
				3795.4,3046.7 3798.1,3049.5 3798.1,3048.1 			" class="fill-FFFFFF"></polygon>
			<polygon display="inline" points="3797.4,3032.1 3801,3032.1 3801,3030.7 3797.4,3030.7 3798.1,3030 
				3798.1,3028.6 3795.4,3031.4 3798.1,3034.2 3798.1,3032.8 			" class="fill-FFFFFF"></polygon>
		</g>
	</g></g>
<g id="offset">
	<path d="M2704,2228l250,433h2922v891H2990l-765-1324H2704 M2721.3,2198H2704h-479h-52l26,45l765,1324l8.7,15h17.3h2886h30v-30v-891
		v-30h-30H2971.3L2730,2213L2721.3,2198L2721.3,2198z"></path>
</g>
<g id="back-stroke">
	<polygon id="1-back-stroke" fill="none" stroke-width="10" stroke-miterlimit="10" points="2990.5,3562.4 
		5876,3562 5876,2649 3395.8,2649.2 	" class="stroke-000000"></polygon>
</g>

<g id="calibrate" display="none">
	<g id="calibrate_bottomright" display="inline">
		<circle cx="5905.9" cy="3583" r="16" class="fill-FF0000"></circle>
	</g>
	<g id="calibrate_topright" display="inline">
		<circle cx="5906" cy="2631" r="16.3" class="fill-FF0000"></circle>
	</g>
	<g id="calibrate_topleft" display="inline">
		<circle cx="2173.1" cy="2198" r="16" class="fill-FF0000"></circle>
	</g>
</g>
<use xlink:href="#fucking-sector" id="sector" x="0" y="0" display="none"></use><use xlink:href="#fucking-pin" id="pin" x="0" y="0" display="none"></use><g id="yah-group" class="scaleOnZoom" opacity="0" transform="translate(0,0) scale(2.4640179910044977)"><g id="yah" transform="translate(-55,-55)">
  <g fill="none" id="yah-sector">
    <circle fill-opacity="0.08" stroke-width="1" stroke-opacity="0.25" cx="55" cy="55" r="55"></circle>
  </g>
  <g id="yah-marker">
    
      <circle class="one" cx="55" cy="55" r="10.5"></circle>
      <path d="M55,46c5,0,9,4,9,9s-4,9-9,9s-9-4-9-9S50,46,55,46 M55,43c-6.6,0-12,5.4-12,12s5.4,12,12,12s12-5.4,12-12
        S61.6,43,55,43L55,43z" class="fill-FFFFFF"></path>
    
    <circle class="two" cx="55" cy="55" r="6"></circle>
  </g>
</g></g><mask id="white-maskaero_5"><rect x="-10000" y="-10000" width="20000" height="20000" fill="black"></rect></mask><mask id="black-maskaero_5"><rect x="-10000" y="-10000" width="20000" height="20000" fill="white"></rect></mask></svg>